<?xml version="1.0" encoding="UTF-8" standalone="no"?>
<svg
   viewBox="0 0 500 500"
   version="1.1"
   id="svg222"
   sodipodi:docname="default.svg"
   inkscape:version="1.2.1 (9c6d41e410, 2022-07-14, custom)"
   xml:space="preserve"
   width="500"
   height="500"
   xmlns:inkscape="http://www.inkscape.org/namespaces/inkscape"
   xmlns:sodipodi="http://sodipodi.sourceforge.net/DTD/sodipodi-0.dtd"
   xmlns="http://www.w3.org/2000/svg"
   xmlns:svg="http://www.w3.org/2000/svg"><sodipodi:namedview
     id="namedview5"
     pagecolor="#ffffff"
     bordercolor="#666666"
     borderopacity="1.0"
     inkscape:showpageshadow="2"
     inkscape:pageopacity="0.0"
     inkscape:pagecheckerboard="0"
     inkscape:deskcolor="#d1d1d1"
     showgrid="false"
     inkscape:zoom="0.921875"
     inkscape:cx="175.18644"
     inkscape:cy="288"
     inkscape:window-width="1519"
     inkscape:window-height="774"
     inkscape:window-x="1702"
     inkscape:window-y="222"
     inkscape:window-maximized="0"
     inkscape:current-layer="svg222" /><defs
     id="defs226" /><!--! Font Awesome Free 6.2.0 by @fontawesome - https://fontawesome.com License - https://fontawesome.com/license/free (Icons: CC BY 4.0, Fonts: SIL OFL 1.1, Code: MIT License) Copyright 2022 Fonticons, Inc. --><path
     id="path4594"
     style="fill:#808080;stroke:#999999;stroke-width:1"
     d="m 243.43701,0.5121579 c -21.63795,0.250975 -43.27495,3.075433 -64.21464,8.794812 C 148.73511,17.60257 119.5981,31.670526 94.345443,51.33569 88.971257,55.55153 83.806823,60.04709 78.716239,64.62492 67.980504,56.31123 57.453838,47.67497 46.260486,40.02654 c -2.335031,-1.470514 -5.267207,-2.314913 -7.909595,-1.245178 -1.959273,0.546126 -4.171768,1.639688 -4.714145,3.857158 -1.474565,4.3045 -0.393681,8.90642 -0.153727,13.32144 1.778956,20.41188 4.089274,40.76879 6.357226,61.12727 0.936499,7.95926 1.798193,15.93886 3.132348,23.8368 0.60606,2.67433 2.131559,5.43014 4.802302,6.27941 3.882946,1.52346 8.067442,0.398 12.062645,0.16262 15.800766,-1.59247 31.537333,-3.77941 47.28744,-5.83277 12.39459,-1.68733 24.79611,-3.38221 37.11631,-5.58727 2.45197,-0.50837 4.96695,-1.42716 6.75726,-3.30572 1.4687,-1.62539 1.81349,-3.97035 1.45842,-6.0995 -0.26957,-2.87413 -2.09785,-5.26747 -4.25309,-6.94895 -6.16734,-5.57621 -12.789,-10.57292 -19.2718,-15.73799 -3.5699,-2.79965 -7.14281,-5.59492 -10.72004,-8.38444 6.04924,-5.11104 12.55406,-9.60428 19.14964,-13.91005 0.96304,-0.60109 2.24586,-1.42182 3.33173,-2.10727 9.97945,-6.174 20.28569,-11.88331 31.23673,-15.975 12.93323,-4.98373 26.31557,-8.72085 39.92718,-11.05117 0.95363,-0.14651 2.22847,-0.36985 3.22338,-0.51665 4.17961,-0.64769 8.37949,-1.142 12.50868,-1.52008 7.88914,-0.70559 15.99341,-0.94098 23.79711,-0.72072 7.97814,0.23998 15.943,0.94292 23.84333,2.12482 0.98605,0.16336 2.2542,0.34456 3.24454,0.51648 13.00661,2.17404 25.73556,5.57121 38.19087,10.15175 7.47143,2.75924 14.79662,5.89957 21.99167,9.49594 5.4133,2.74159 10.47185,6.16519 15.49521,9.59923 1.97003,1.38813 4.16086,2.94182 6.18871,4.43691 11.12535,8.19283 21.89815,16.92887 32.04741,26.39831 4.7255,4.38703 9.09446,9.18031 13.02479,14.34736 8.27795,10.48528 15.57137,21.66107 21.80491,33.58742 1.25959,2.4392 2.62247,5.15663 3.83315,7.75205 10.72217,22.87191 16.82566,47.96001 18.67719,73.29538 0.0652,1.16774 0.18387,2.71841 0.25047,4.03986 0.58485,11.18213 0.24699,22.41763 -1.03875,33.53677 -0.22629,1.85529 -0.49818,4.02487 -0.79756,5.99403 -0.64976,4.41148 -1.44284,8.76256 -2.37199,13.0458 -0.87173,4.03852 -1.95151,8.38133 -3.09905,12.3745 -1.63802,5.77132 -3.5471,11.45826 -5.689,17.04795 -0.46333,1.1754 -1.05298,2.70805 -1.59893,4.00796 -2.96741,7.23895 -6.26052,14.36495 -10.46156,20.92878 -8.20812,12.88373 -17.50489,25.0021 -27.49153,36.4404 -6.62582,7.618 -13.76025,14.83422 -21.89085,20.71281 -7.38241,5.63468 -15.14847,10.71985 -23.19248,15.26974 -0.78016,0.437 -1.9352,1.06899 -2.85923,1.58081 -24.54569,13.35956 -51.73183,21.41297 -79.35736,23.57527 -1.33172,0.0824 -3.01101,0.22653 -4.48365,0.29256 -1.84736,0.11221 -3.49636,0.16649 -5.38903,0.23331 -27.20143,0.7756 -54.52774,-4.01799 -79.98482,-14.0096 -9.82699,-3.85368 -19.46318,-8.32855 -28.52702,-13.86327 -10.53636,-6.549 -20.43501,-14.15165 -30.01876,-22.11096 -8.65069,-7.32249 -17.13263,-14.97873 -24.254557,-23.94853 -5.137471,-6.24216 -9.965868,-12.85986 -14.452182,-19.70524 -2.987804,-4.55349 -5.703948,-9.08414 -8.341564,-13.90118 -9.864057,-18.01378 -16.840495,-37.70738 -20.691151,-58.04058 -2.195787,-11.41156 -3.485387,-23.00212 -4.034448,-34.62288 -0.05549,-1.39798 -0.121079,-3.16643 -0.142557,-4.70777 -0.242936,-12.76974 0.937562,-25.5509 3.312193,-38.07665 1.230475,-8.31133 1.98533,-17.06252 -0.664758,-25.17408 -1.134313,-3.57876 -3.325236,-6.80457 -6.371779,-8.88713 -5.381779,-4.10371 -12.103902,-6.96765 -18.876511,-5.98036 -6.673047,0.96555 -12.422416,5.65812 -15.823721,11.57438 -4.8210321,7.92591 -6.3965696,17.33344 -7.9142419,26.41979 -6.7013065,41.50325 -1.8439261,84.67234 12.3030909,123.99791 13.613363,37.84486 35.753939,72.43329 64.49625,99.67516 16.800715,15.67231 35.553036,29.01605 55.375246,40.20669 17.88431,9.9172 37.0855,17.12924 56.73491,22.21109 47.79738,12.22694 98.9626,10.51958 145.66849,-5.82679 21.3172,-7.43021 41.65851,-17.90253 60.18904,-31.14857 11.09631,-7.69136 21.71856,-16.28284 30.69443,-26.58867 9.76903,-10.93917 18.56313,-22.75829 27.45362,-34.46323 8.47944,-11.29734 16.43996,-23.19784 21.81917,-36.46008 4.26912,-10.16282 7.97787,-20.57895 11.23875,-31.13528 11.61892,-38.91539 13.10263,-80.94345 4.79221,-120.73174 C 486.11187,165.8519 468.66858,128.76001 444.2799,97.59883 438.23693,89.77652 431.6452,82.40828 424.46703,75.69959 414.46235,66.18863 403.78906,57.45673 392.81087,49.19601 382.05411,41.16857 370.80492,33.777919 358.78044,27.965573 331.45991,14.136634 301.89296,4.8535229 271.60428,1.8041299 262.24663,0.8432749 252.84006,0.4208329 243.43701,0.5121579 Z m 3.55108,188.9054921 c -17.18088,0.55587 -34.22178,8.69446 -45.16025,22.60089 -10.75132,13.61003 -14.57259,32.46008 -11.02742,49.57324 2.93366,14.56277 11.29166,27.8268 22.92962,36.47913 12.24408,9.05689 27.59094,13.32651 42.55322,12.28508 8.79232,-0.58402 17.43928,-3.17595 25.18479,-7.54023 4.71063,-2.56626 9.00002,-6.01375 12.34055,-10.33555 3.89743,-4.68058 7.64346,-9.52292 10.93877,-14.68313 3.96757,-6.71549 5.2632,-14.69494 5.72056,-22.44577 0.31889,-6.70937 -0.1147,-13.51219 -1.92119,-19.98804 -2.19876,-7.97773 -5.39975,-15.86959 -10.73466,-22.154 -3.58448,-4.2416 -8.09054,-7.47127 -12.37401,-10.88682 -5.60581,-4.48098 -11.69909,-8.63998 -18.66728,-10.3616 -6.42122,-1.88012 -13.11341,-2.75237 -19.7827,-2.5432 z" /></svg>
