<?xml version="1.0" encoding="UTF-8" standalone="no"?>
<svg
   viewBox="0 0 500 500"
   version="1.1"
   id="svg222"
   sodipodi:docname="down.svg"
   inkscape:version="1.3.2 (091e20ef0f, 2023-11-25, custom)"
   xml:space="preserve"
   width="500"
   height="500"
   xmlns:inkscape="http://www.inkscape.org/namespaces/inkscape"
   xmlns:sodipodi="http://sodipodi.sourceforge.net/DTD/sodipodi-0.dtd"
   xmlns="http://www.w3.org/2000/svg"
   xmlns:svg="http://www.w3.org/2000/svg"><sodipodi:namedview
     id="namedview5"
     pagecolor="#ffffff"
     bordercolor="#666666"
     borderopacity="1.0"
     inkscape:showpageshadow="2"
     inkscape:pageopacity="0.0"
     inkscape:pagecheckerboard="0"
     inkscape:deskcolor="#d1d1d1"
     showgrid="false"
     inkscape:zoom="0.921875"
     inkscape:cx="258.71186"
     inkscape:cy="267.9322"
     inkscape:window-width="1519"
     inkscape:window-height="774"
     inkscape:window-x="1692"
     inkscape:window-y="214"
     inkscape:window-maximized="0"
     inkscape:current-layer="svg222" /><defs
     id="defs226" /><!--! Font Awesome Free 6.2.0 by @fontawesome - https://fontawesome.com License - https://fontawesome.com/license/free (Icons: CC BY 4.0, Fonts: SIL OFL 1.1, Code: MIT License) Copyright 2022 Fonticons, Inc. --><path
     id="path6935"
     style="fill:#999999;fill-opacity:1;stroke:#999999;stroke-width:50;stroke-linecap:square;stroke-linejoin:round;stroke-miterlimit:150;stroke-dasharray:none;stroke-opacity:1;paint-order:normal"
     d="m 330.41857,193.05599 c -0.0506,-0.75348 -0.6195,-1.39498 -1.25983,-1.79094 -0.86827,-0.45154 -1.88927,-0.2498 -2.8325,-0.29071 l -154.31628,0.50382 c -0.90439,0.12056 -1.91303,0.57022 -2.18638,1.47105 -0.32976,0.7399 -0.25632,1.64348 0.28645,2.27644 4.45993,6.71238 8.95857,13.40128 13.43379,20.10446 l 62.26275,93.08587 c 0.59799,0.67941 1.56667,1.245 2.52409,0.96327 0.76842,-0.13304 1.45047,-0.61513 1.80074,-1.28003 20.69473,-29.39498 41.38946,-58.78997 62.08419,-88.18495 5.94716,-8.4474 11.89433,-16.8948 17.84149,-25.34221 0.23738,-0.46528 0.37648,-0.9969 0.36149,-1.51607 z"
     sodipodi:nodetypes="ccccccccccscc" /></svg>
