<?xml version="1.0" encoding="UTF-8" standalone="no"?>
<svg
   viewBox="0 0 500 500"
   version="1.1"
   id="svg222"
   xml:space="preserve"
   width="500"
   height="500"
   xmlns="http://www.w3.org/2000/svg"
   xmlns:svg="http://www.w3.org/2000/svg"><defs
     id="defs226" /><!--! Font Awesome Free 6.2.0 by @fontawesome - https://fontawesome.com License - https://fontawesome.com/license/free (Icons: CC BY 4.0, Fonts: SIL OFL 1.1, Code: MIT License) Copyright 2022 Fonticons, Inc. --><g
     id="path895"><path
       style="color:#000000;fill:#999999;stroke-linecap:round;-inkscape-stroke:none"
       d="m 250,59.132812 a 25,25 0 0 0 -25,25 v 69.138668 169.41797 a 25,25 0 0 0 25,25 25,25 0 0 0 25,-25 V 153.27148 84.132812 a 25,25 0 0 0 -25,-25 z"
       id="path1588" /><g
       id="g1580"><path
         style="color:#000000;fill:#999999;stroke-linecap:round;-inkscape-stroke:none"
         d="M 250,36.279297 82.322266,203.95508 a 25,25 0 0 0 0,35.35547 25,25 0 0 0 35.355464,0 L 250,106.98828 382.32227,239.31055 a 25,25 0 0 0 35.35546,0 25,25 0 0 0 0,-35.35547 z"
         id="path1582" /></g></g><path
     style="fill:none;stroke:#999999;stroke-width:50;stroke-linecap:round;stroke-linejoin:round;stroke-opacity:1;stroke-dasharray:none"
     d="m 75,356.91505 v 92.62181 L 425,444.23 v -96.53985"
     id="path1536" /></svg>
