<?xml version="1.0" encoding="UTF-8" standalone="no"?>
<svg
   version="1.0"
   width="500.000000pt"
   height="500.000000pt"
   viewBox="0 0 500.000000 500.000000"
   preserveAspectRatio="xMidYMid meet"
   id="svg6"
   sodipodi:docname="logo.svg"
   xml:space="preserve"
   inkscape:version="1.2.1 (9c6d41e410, 2022-07-14, custom)"
   xmlns:inkscape="http://www.inkscape.org/namespaces/inkscape"
   xmlns:sodipodi="http://sodipodi.sourceforge.net/DTD/sodipodi-0.dtd"
   xmlns="http://www.w3.org/2000/svg"
   xmlns:svg="http://www.w3.org/2000/svg"><defs
     id="defs10" /><sodipodi:namedview
     id="namedview8"
     pagecolor="#ffffff"
     bordercolor="#666666"
     borderopacity="1.0"
     inkscape:showpageshadow="2"
     inkscape:pageopacity="0.0"
     inkscape:pagecheckerboard="0"
     inkscape:deskcolor="#d1d1d1"
     inkscape:document-units="pt"
     showgrid="false"
     inkscape:zoom="0.70710678"
     inkscape:cx="408.70772"
     inkscape:cy="581.94888"
     inkscape:window-width="1984"
     inkscape:window-height="1184"
     inkscape:window-x="1570"
     inkscape:window-y="51"
     inkscape:window-maximized="0"
     inkscape:current-layer="g4" /><g
     transform="translate(0.000000,500.000000) scale(0.100000,-0.100000)"
     fill="#000000"
     stroke="none"
     id="g4"><path
       id="path3602"
       style="fill:#ffffff;fill-opacity:1;stroke:#000080;stroke-width:0;stroke-linecap:round;stroke-linejoin:round;stroke-dasharray:none"
       d="m 2460.8059,4981.3479 c -12.101,-0.1859 -24.203,-0.3032 -36.3,-0.6534 -12.037,-0.2435 -24.068,-0.7184 -36.1,-1.1201 0.07,0 -1.13,-0.051 -1.55,-0.071 -11.583,-0.5176 -23.169,-0.9766 -34.744,-1.6529 -12.176,-0.6083 -24.338,-1.4393 -36.504,-2.2151 -11.879,-0.8833 -23.764,-1.6996 -35.631,-2.7446 -12.22,-0.9726 -24.419,-2.1688 -36.623,-3.3096 -11.848,-1.2311 -23.703,-2.3967 -35.534,-3.7894 -12.071,-1.3166 -24.116,-2.8562 -36.168,-4.34 -11.883,-1.5894 -23.776,-3.1132 -35.637,-4.8625 -12.049,-1.6711 -24.064,-3.5732 -36.088,-5.4113 -11.822,-1.9367 -23.655,-3.8058 -35.451,-5.9022 -12.021,-2.0307 -24.003,-4.2886 -35.995,-6.4858 -11.712,-2.2735 -23.437,-4.4839 -35.118,-6.9157 -11.973,-2.3879 -23.901,-4.9948 -35.84,-7.548 -11.721,-2.6367 -23.456,-5.2087 -35.141,-8.002 -11.883,-2.7379 -23.715,-5.6915 -35.559,-8.5929 -11.51,-2.9453 -23.036,-5.8287 -34.505,-8.9304 -11.831,-3.0935 -23.604,-6.4014 -35.391,-9.6576 -7.544,-2.163 -15.087,-4.3259 -22.631,-6.4889 0.06,0.012 -1.085,-0.3234 -1.489,-0.4453 -11.05,-3.2912 -22.117,-6.5262 -33.122,-9.97 -11.671,-3.5419 -23.274,-7.3007 -34.894,-11.0028 -11.378,-3.7597 -22.777,-7.4542 -34.103,-11.3668 -11.595,-3.8956 -23.115,-8.0068 -34.655,-12.0613 -11.168,-4.0575 -22.361,-8.0491 -33.473,-12.2591 -11.5385,-4.2603 -22.9977,-8.729 -34.4759,-13.1469 -11.0453,-4.3834 -22.1156,-8.7045 -33.1009,-13.2372 -11.3175,-4.5564 -22.5472,-9.3259 -33.8004,-14.0379 -11.004,-4.7467 -22.0349,-9.4314 -32.9741,-14.3264 -11.2105,-4.9043 -22.3307,-10.0108 -33.472,-15.0696 -10.8006,-5.0393 -21.6289,-10.0199 -32.3612,-15.2041 -11.0338,-5.2153 -21.9684,-10.6358 -32.9285,-16.0032 -10.6785,-5.3693 -21.3868,-10.68 -31.9927,-16.1923 -10.8769,-5.5371 -21.649,-11.2762 -32.4477,-16.9633 -10.5174,-5.681 -21.0664,-11.3042 -31.5067,-17.1266 -10.6823,-5.839 -21.2536,-11.8772 -31.8547,-17.8615 -10.3756,-6.004 -20.785,-11.9503 -31.0792,-18.0936 -10.5087,-6.1504 -20.9005,-12.4969 -31.323,-18.7915 -10.1672,-6.2888 -20.3708,-12.5195 -30.4525,-18.9455 -10.3399,-6.4676 -20.5593,-13.1246 -30.8083,-19.7346 -9.9925,-6.5925 -20.0234,-13.1275 -29.9256,-19.8556 -10.1607,-6.7769 -20.1929,-13.7428 -30.2597,-20.6577 -9.8379,-6.9128 -19.7148,-13.7706 -29.4585,-20.8163 -9.9574,-7.0753 -19.785,-14.3304 -29.6441,-21.5414 -9.5776,-7.1588 -19.19427,-14.2658 -28.67487,-21.5533 -9.7225,-7.3438 -19.3072,-14.8671 -28.9274,-22.3438 -9.4175,-7.4786 -18.8752,-14.9072 -28.192,-22.5117 -9.5043,-7.6259 -18.8646,-15.4283 -28.262,-23.1851 -9.0824,-7.6564 -18.2072,-15.263 -27.1854,-23.0421 -9.2908,-7.9104 -18.4311,-15.9945 -27.6125,-24.0311 -8.9648,-8.0188 -17.9763,-15.9859 -26.8322,-24.1254 -9.0573,-8.1857 -17.9634,-16.536 -26.907,-24.8452 -8.6655,-8.2194 -17.3776,-16.3901 -25.9312,-24.7265 -8.8169,-8.4483 -17.4781,-17.0565 -26.1774,-25.6253 -8.4218,-8.4707 -16.8936,-16.892 -25.1999,-25.4764 -8.6231,-8.7632 -17.0868,-17.6807 -25.5884,-26.5612 -8.1834,-8.7273 -16.4146,-17.4102 -24.4805,-26.2468 -8.2875,-8.9269 -16.4078,-18.0063 -24.5712,-27.0462 -8.0237,-9.0757 -16.0957,-18.1092 -23.9986,-27.2909 -8.0019,-9.1431 -15.8332,-18.4329 -23.7063,-27.6867 -7.6921,-9.2297 -15.4334,-18.4187 -23.0014,-27.7509 -7.7635,-9.4125 -15.3517,-18.967 -22.9834,-28.4861 -7.3683,-9.3873 -14.7881,-18.7344 -22.0299,-28.2201 -7.4773,-9.6247 -14.7759,-19.3858 -22.1194,-29.1124 -7.1401,-9.6657 -14.335,-19.2913 -21.3453,-29.052 -7.2038,-9.8517 -14.2209,-19.8375 -21.2888,-29.7866 -6.8466,-9.8581 -13.7486,-19.678 -20.4619,-29.6278 -6.9135,-10.0612 -13.6386,-20.2495 -20.4132,-30.4041 -6.5385,-10.0269 -13.1339,-20.017 -19.5366,-30.1316 -6.6185,-10.2584 -13.0421,-20.6403 -19.5185,-30.9886 -6.2597,-10.2437 -12.5802,-20.4505 -18.7019,-30.7778 -6.3078,-10.4366 -12.4208,-20.9887 -18.5844,-31.5107 -6.0162,-10.5228 -12.0907,-21.0127 -17.9661,-31.6152 -6.0075,-10.6323 -11.82,-21.3727 -17.6804,-32.0864 -5.6522,-10.5922 -11.3597,-21.1551 -16.8702,-31.8222 -5.6961,-10.8056 -11.1914,-21.715 -16.7373,-32.5979 -5.3117,-10.6939 -10.6824,-21.3587 -15.8492,-32.1237 -5.4066,-11.0287 -10.6129,-22.1535 -15.8675,-33.255 -5.0119,-10.8753 -10.082,-21.7242 -14.9472,-32.6665 -5.0568,-11.1216 -9.9076,-22.3348 -14.8119,-33.524 -4.7052,-11.0485 -9.4694,-22.0721 -14.0272,-33.1827 -4.7254,-11.2517 -9.2426,-22.5888 -13.8123,-33.9042 -4.3751,-11.1652 -8.8125,-22.3063 -13.0364,-33.53 -4.4015,-11.3995 -8.5911,-22.8787 -12.8366,-34.3367 -4.0602,-11.3223 -8.1811,-22.6231 -12.0888,-33.9994 -4.0728,-11.5397 -7.9296,-23.1537 -11.8434,-34.7479 -3.7124,-11.3881 -7.4894,-22.7554 -11.0479,-34.193 -3.7345,-11.6567 -7.2551,-23.38 -10.8277,-35.087 -3.4019,-11.5706 -6.8659,-23.1233 -10.1137,-34.7386 -3.3843,-11.7301 -6.5533,-23.5206 -9.7738,-35.2964 -3.0456,-11.6006 -6.1545,-23.1849 -9.0453,-34.8255 -3.0531,-11.8726 -5.8871,-23.7996 -8.7756,-35.7128 -2.7035,-11.6711 -5.4709,-23.3276 -8.0178,-35.0342 -2.7048,-11.957 -5.1921,-23.9614 -7.7327,-35.9539 -2.3594,-11.7294 -4.78,-23.4468 -6.9818,-35.2072 -2.3585,-12.0468 -4.5003,-24.1343 -6.6924,-36.212 -2.0109,-11.7604 -4.0851,-23.5103 -5.937,-35.2972 -2.0065,-12.1111 -3.7944,-24.2567 -5.6352,-36.3936 -1.679,-11.8961 -3.4215,-23.7834 -4.9407,-35.7013 -1.6468,-12.1123 -3.0721,-24.2529 -4.5521,-36.3863 -1.3236,-11.8781 -2.7157,-23.7488 -3.8787,-35.6441 -1.2922,-12.1456 -2.3631,-24.3129 -3.4897,-36.4747 -0.9862,-12.0221 -2.0419,-24.0389 -2.8657,-36.0737 -0.9422,-12.2593 -1.6619,-24.5339 -2.4361,-36.8045 -0.6318,-11.9496 -1.326,-23.8961 -1.7976,-35.8534 -0.5838,-12.1967 -0.9404,-24.4024 -1.3559,-36.6055 -0.2844,-12.0445 -0.6369,-24.0876 -0.7585,-36.1352 -0.2251,-12.2613 -0.2295,-24.5248 -0.2874,-36.7876 0.067,-12.0133 0.07,-24.0272 0.2961,-36.0389 0.1293,-12.2284 0.4855,-24.4526 0.7838,-36.6776 0.4138,-11.9409 0.7623,-23.8844 1.3376,-35.8191 0.4873,-12.2375 1.1957,-24.4645 1.8518,-36.6937 0.7667,-12.005 1.4686,-24.0144 2.3955,-36.0085 0.8425,-12.2329 1.9123,-24.4483 2.9247,-36.6679 1.1075,-11.8912 2.1541,-23.7883 3.4204,-35.6641 1.1941,-12.1752 2.6172,-24.326 3.979,-36.4831 1.4667,-11.9487 2.8686,-23.9056 4.4951,-35.834 1.5522,-12.1387 3.3258,-24.2472 5.0451,-36.3629 1.8123,-11.8944 3.5636,-23.7983 5.5345,-35.6678 1.8997,-12.0599 4.0207,-24.083 6.0873,-36.115 2.1529,-11.8037 4.2437,-23.619 6.5541,-35.3933 2.2554,-12.0207 4.7288,-23.9987 7.1489,-35.9868 2.5085,-11.7934 4.9534,-23.6006 7.6192,-35.3598 2.6051,-11.9448 5.4275,-23.8404 8.1967,-35.7477 2.8322,-11.641 5.6005,-23.2978 8.5898,-34.8999 2.9684,-11.9273 6.152,-23.7993 9.2836,-35.6844 3.1524,-11.4862 6.2421,-22.9899 9.5497,-34.4329 3.3245,-11.8678 6.8618,-23.6743 10.3488,-35.495 3.4947,-11.4213 6.929,-22.8613 10.5778,-34.2347 3.6314,-11.655 7.4785,-23.2408 11.271,-34.844 3.8424,-11.3602 7.6213,-22.7423 11.6167,-34.05 3.9691,-11.5432 8.1496,-23.0118 12.2772,-34.4988 4.1686,-11.2326 8.2751,-22.4884 12.5937,-33.6646 4.3226,-11.4767 8.8596,-22.8705 13.3395,-34.2862 4.506,-11.132 8.9486,-22.29 13.6035,-33.361 4.6547,-11.3333 9.5131,-22.581 14.3224,-33.8492 4.8278,-10.995 9.5954,-22.0168 14.5702,-32.9466 4.9682,-11.1611 10.1399,-22.2296 15.2614,-33.3207 5.1461,-10.8491 10.2338,-21.7262 15.5242,-32.5061 5.2903,-11.0102 10.7828,-21.9213 16.2252,-32.8567 5.445,-10.6642 10.8307,-21.3591 16.4193,-31.9493 5.6257,-10.8784 11.4465,-21.654 17.2206,-32.454 5.7622,-10.5152 11.4689,-21.0611 17.3721,-31.4983 5.9472,-10.7216 12.0902,-21.3325 18.1833,-31.9714 6.0314,-10.2847 12.0077,-20.6021 18.1776,-30.8047 6.2193,-10.4862 12.6365,-20.8526 18.9986,-31.2522 6.3739,-10.1732 12.6889,-20.3835 19.1998,-30.47 6.5134,-10.2848 13.2202,-20.4447 19.8732,-30.6393 6.6869,-10.0092 13.3159,-20.0575 20.1363,-29.9767 6.8403,-10.1311 13.8671,-20.1339 20.8469,-30.1689 6.9264,-9.7388 13.7959,-19.5185 20.853,-29.1637 7.1608,-9.9645 14.5056,-19.7945 21.8016,-29.66 7.2286,-9.56118 14.4048,-19.16228 21.7617,-28.62568 7.4171,-9.7088 15.0126,-19.279 22.562,-28.8847 7.5141,-9.3563 14.9758,-18.7549 22.6159,-28.0091 7.7305,-9.5242 15.6337,-18.9059 23.4935,-28.3232 7.7187,-9.0557 15.3865,-18.1551 23.2277,-27.1055 8.0269,-9.318 16.2206,-18.4899 24.3734,-27.6974 8.0015,-8.8495 15.9544,-17.7434 24.0749,-26.4843 8.2485,-9.0298 16.6612,-17.907 25.0328,-26.8221 8.3487,-8.7075 16.6523,-17.4585 25.1168,-26.0539 8.4594,-8.7352 17.0823,-17.3096 25.6622,-25.926 8.4941,-8.3556 16.9438,-16.7568 25.5499,-24.9976 8.744,-8.5171 17.647,-16.8681 26.5071,-25.2637 8.843,-8.2034 17.6417,-16.4549 26.5943,-24.5393 8.9427,-8.2125 18.0381,-16.2559 27.0932,-24.3436 8.9885,-7.8614 17.9333,-15.7733 27.0274,-23.5129 9.2017,-7.9683 18.5505,-15.7639 27.861,-23.6042 9.2673,-7.6373 18.4905,-15.3283 27.8604,-22.84 9.4943,-7.7429 19.1279,-15.3122 28.7279,-22.9231 9.421,-7.312 18.8016,-14.6766 28.3206,-21.8612 9.71527,-7.4618 19.56627,-14.7441 29.38347,-22.0705 9.7106,-7.0901 19.3836,-14.2321 29.1883,-21.1919 9.8623,-7.124 19.8548,-14.0645 29.8151,-21.05 9.8166,-6.7361 19.5959,-13.527 29.5026,-20.1307 10.1032,-6.8608 20.3351,-13.5284 30.532,-20.2483 10.0671,-6.4828 20.0988,-13.0212 30.2528,-19.3678 10.284,-6.55 20.6887,-12.907 31.062,-19.3136 10.237,-6.1742 20.4391,-12.4067 30.7589,-18.4423 10.486,-6.253 21.0862,-12.3111 31.6572,-18.4187 10.4133,-5.8702 20.7929,-11.8008 31.2843,-17.5311 10.6632,-5.9419 21.4346,-11.686 32.1784,-17.4801 10.6097,-5.5779 21.1882,-11.216 31.8728,-16.6501 10.8314,-5.6237 21.7639,-11.0487 32.6715,-16.5221 10.7081,-5.2346 21.3865,-10.5305 32.1647,-15.6201 10.9906,-5.3041 22.077,-10.4055 33.1392,-15.5577 10.9032,-4.9391 21.7797,-9.9378 32.7484,-14.7307 11.1232,-4.9724 22.3371,-9.7377 33.5278,-14.5554 11.0255,-4.6096 22.0247,-9.2829 33.112,-13.743 11.265,-4.6436 22.6148,-9.0765 33.9427,-13.5632 11.2945,-4.3375 22.5664,-8.7345 33.9184,-12.9211 11.301,-4.2759 22.682,-8.3366 34.042,-12.4538 11.322,-3.9702 22.622,-8.003 33.996,-11.8203 11.468,-3.9574 23.009,-7.6994 34.53,-11.4987 11.404,-3.6268 22.788,-7.316 34.239,-10.7884 11.496,-3.5967 23.061,-6.9661 34.603,-10.4085 -0.06,0.015 1.088,-0.3124 1.493,-0.4295 11.102,-3.1773 22.188,-6.4089 33.333,-9.4327 11.79,-3.305504 23.639,-6.395704 35.473,-9.538804 11.514,-2.9293 23.011,-5.9248 34.564,-8.6975 11.825,-2.9446 23.702,-5.6736 35.566,-8.4539 11.636,-2.5989 23.256,-5.2687 34.927,-7.7089 12.011,-2.6185 24.068,-5.0156 36.113,-7.4684 11.723,-2.2601 23.435,-4.5821 35.188,-6.6842 11.909,-2.2356 23.859,-4.2438 35.798,-6.3145 11.862,-1.9259 23.714,-3.9169 35.602,-5.6846 12.021,-1.8927 24.077,-3.5553 36.123,-5.2804 11.909,-1.576 23.809,-3.2182 35.739,-4.6339 12.094,-1.5369 24.216,-2.8515 36.33,-4.2206 11.867,-1.2178 23.728,-2.4971 35.611,-3.5543 12.149,-1.1826 24.318,-2.1448 36.482,-3.1586 11.848,-0.8642 23.691,-1.7943 35.55,-2.4969 12.184,-0.8243 24.381,-1.4279 36.575,-2.0832 7.883,-0.348 15.767,-0.6959 23.65,-1.0439 -0.07,-2e-4 1.13,-0.039 1.551,-0.054 11.571,-0.3912 23.142,-0.8365 34.718,-1.0698 12.158,-0.348 24.321,-0.4701 36.483,-0.648 11.955,-0.05 23.909,-0.1691 35.864,-0.057 12.175,0.011 24.347,0.2445 36.521,0.4232 12.057,0.3039 24.116,0.5426 36.168,1.0079 3.909,0.1339 7.819,0.2678 11.728,0.4017 -0.07,0 1.13,0.051 1.55,0.071 11.583,0.5176 23.169,0.9765 34.744,1.6528 12.176,0.6084 24.338,1.4393 36.504,2.2152 11.879,0.8832 23.764,1.6996 35.631,2.7445 12.22,0.9727 24.419,2.1689 36.623,3.3097 11.848,1.231 23.703,2.3967 35.534,3.7893 12.071,1.3167 24.116,2.8562 36.168,4.34 11.883,1.5895 23.776,3.1133 35.637,4.8626 12.049,1.6711 24.064,3.5732 36.088,5.4113 11.822,1.9366 23.655,3.8058 35.451,5.9022 12.021,2.0307 24.003,4.2886 35.995,6.4858 11.712,2.2735 23.437,4.4838 35.118,6.9157 11.973,2.3879 23.901,4.9948 35.84,7.5479 11.721,2.6368 23.456,5.2088 35.141,8.0021 11.883,2.7379 23.715,5.6915 35.559,8.5929 11.51,2.9453 23.036,5.8287 34.505,8.9304 11.831,3.0934 23.604,6.401404 35.391,9.657604 7.544,2.1629 15.087,4.3259 22.631,6.4889 -0.06,-0.013 1.085,0.3234 1.489,0.4453 11.05,3.2912 22.117,6.5262 33.122,9.97 11.671,3.5418 23.274,7.3007 34.894,11.0028 11.378,3.7597 22.777,7.4542 34.103,11.3668 11.595,3.8955 23.115,8.0067 34.655,12.0612 11.168,4.0576 22.361,8.0492 33.473,12.2591 11.538,4.2604 22.998,8.729 34.476,13.1469 11.045,4.3835 22.115,8.7046 33.101,13.2372 11.317,4.5565 22.547,9.3259 33.8,14.038 11.004,4.7466 22.035,9.4313 32.974,14.3263 11.211,4.9044 22.331,10.0109 33.473,15.0696 10.8,5.0394 21.629,10.0199 32.361,15.2041 11.034,5.2153 21.968,10.6358 32.928,16.0032 10.679,5.3694 21.387,10.6801 31.993,16.1923 10.877,5.5372 21.649,11.2762 32.448,16.9633 10.517,5.6811 21.066,11.3043 31.506,17.1267 10.683,5.839 21.254,11.8772 31.855,17.8615 10.376,6.004 20.785,11.9502 31.079,18.0936 10.509,6.1504 20.901,12.4969 31.323,18.7915 10.168,6.2888 20.371,12.5195 30.453,18.9454 10.34,6.4677 20.559,13.1246 30.808,19.7347 9.993,6.5925 20.023,13.1274 29.926,19.8555 10.16,6.7769 20.193,13.7429 30.259,20.6578 9.838,6.9127 19.715,13.7706 29.459,20.8163 9.957,7.0753 19.785,14.3304 29.644,21.5413 9.578,7.1589 19.194,14.2659 28.675,21.5533 9.722,7.3439 19.307,14.8671 28.927,22.3438 9.418,7.4787 18.876,14.9072 28.192,22.5117 9.505,7.626 18.865,15.4283 28.262,23.1851 9.083,7.6565 18.208,15.2631 27.186,23.0421 9.291,7.9105 18.431,15.9946 27.612,24.0311 8.965,8.0189 17.976,15.9859 26.832,24.1255 9.058,8.1856 17.964,16.5359 26.907,24.8451 8.666,8.2194 17.378,16.3902 25.932,24.7265 8.817,8.4484 17.478,17.0566 26.177,25.6254 8.422,8.4706 16.894,16.8919 25.2,25.4763 8.623,8.7633 17.087,17.6807 25.588,26.5612 8.184,8.7274 16.415,17.4102 24.481,26.2468 8.287,8.9269 16.408,18.0064 24.571,27.0463 8.024,9.0757 16.096,18.1091 23.999,27.2908 8.001,9.1431 15.833,18.433 23.706,27.6867 7.692,9.2298 15.433,18.4187 23.001,27.751 7.764,9.4124 15.352,18.967 22.984,28.486 7.368,9.3873 14.788,18.7345 22.03,28.2202 7.477,9.6246 14.776,19.3858 22.119,29.11238 7.14,9.6657 14.335,19.2913 21.345,29.052 7.204,9.8517 14.221,19.8374 21.289,29.7865 6.847,9.8581 13.749,19.678 20.462,29.6279 6.913,10.0611 13.639,20.2494 20.413,30.4041 6.539,10.0268 13.134,20.017 19.537,30.1315 6.618,10.2585 13.042,20.6403 19.518,30.9886 6.26,10.2437 12.58,20.4506 18.702,30.7779 6.308,10.4366 12.421,20.9887 18.585,31.5107 6.016,10.5228 12.09,21.0126 17.966,31.6152 6.007,10.6323 11.82,21.3727 17.68,32.0863 5.652,10.5922 11.36,21.1552 16.87,31.8223 5.696,10.8055 11.192,21.7149 16.738,32.5979 5.311,10.6938 10.682,21.3587 15.849,32.1237 5.406,11.0287 10.613,22.1535 15.867,33.2549 5.012,10.8754 10.082,21.7243 14.947,32.6666 5.057,11.1216 9.908,22.3347 14.812,33.524 4.706,11.0484 9.47,22.0721 14.028,33.1826 4.725,11.2517 9.242,22.5888 13.812,33.9042 4.375,11.1653 8.812,22.3064 13.036,33.5301 4.402,11.3995 8.591,22.8787 12.837,34.3367 4.06,11.3223 8.181,22.6231 12.089,33.9993 4.073,11.5398 7.929,23.1538 11.843,34.748 3.713,11.3881 7.489,22.7554 11.048,34.1929 3.734,11.6568 7.255,23.3801 10.828,35.087 3.402,11.5707 6.866,23.1234 10.113,34.7386 3.385,11.7302 6.554,23.5206 9.774,35.2964 3.046,11.6007 6.155,23.185 9.046,34.8256 3.053,11.8725 5.887,23.7996 8.775,35.7128 2.704,11.671 5.471,23.3275 8.018,35.0342 2.705,11.957 5.192,23.9614 7.733,35.9539 2.359,11.7294 4.78,23.4468 6.981,35.2072 2.359,12.0468 4.501,24.1342 6.693,36.212 2.011,11.7604 4.085,23.5103 5.937,35.2972 2.006,12.1111 3.794,24.2566 5.635,36.3936 1.679,11.896 3.422,23.7834 4.941,35.7013 1.647,12.1123 3.072,24.2529 4.552,36.3862 1.323,11.8781 2.715,23.7489 3.878,35.6441 1.293,12.1457 2.364,24.313 3.49,36.4747 0.986,12.0222 2.042,24.039 2.866,36.0738 0.942,12.2593 1.662,24.5338 2.436,36.8045 0.632,11.9495 1.326,23.896 1.798,35.8534 0.583,12.1967 0.94,24.4024 1.355,36.6055 0.285,12.0444 0.637,24.0876 0.759,36.1352 0.227,12.3939 0.23,24.7901 0.289,37.1856 0,7.7658 -0.05,15.5315 -0.118,23.2969 0,0.3789 -0.01,1.2007 -0.02,1.7491 -0.191,18.3503 -0.591,36.6982 -1.18,55.04 -0.02,0.3787 -0.04,1.2 -0.06,1.7481 -0.338,10.2316 -0.746,20.4607 -1.206,30.6874 -0.01,0.3781 -0.06,1.1994 -0.08,1.7472 -0.472,10.2249 -1.013,20.4465 -1.608,30.6649 -0.02,0.3947 -0.07,1.1986 -0.104,1.7499 -0.128,2.1172 -0.255,4.2345 -0.382,6.3517 -0.03,0.3779 -0.08,1.1983 -0.112,1.7456 -0.638,10.2153 -1.341,20.4265 -2.103,30.6333 -0.03,0.3944 -0.09,1.1972 -0.136,1.7479 -0.362,4.813 -0.745,9.6244 -1.13,14.4357 -0.03,0.3681 -0.1,1.1966 -0.143,1.741 -0.177,2.1143 -0.353,4.2287 -0.529,6.343 -0.04,0.4024 -0.103,1.1962 -0.152,1.7484 -0.183,2.1131 -0.365,4.2263 -0.547,6.3395 -0.03,0.3847 -0.107,1.1959 -0.155,1.7439 -0.903,10.1948 -1.875,20.3833 -2.9,30.5666 -0.04,0.3761 -0.123,1.1944 -0.18,1.7398 -0.761,7.4721 -1.551,14.9164 -2.388,22.4653 -0.05,0.3924 -0.135,1.1931 -0.197,1.7418 -3.836,34.3643 -8.394,68.6475 -13.655,102.8226 -0.06,0.3892 -0.185,1.1864 -0.27,1.7318 -3.219,20.8056 -6.702,41.5703 -10.446,62.2878 -0.07,0.3857 -0.216,1.1812 -0.314,1.7238 -8.589,47.323 -18.549,94.3972 -29.856,141.1453 -0.08,0.3613 -0.284,1.1666 -0.413,1.6979 -2.416,9.9449 -4.893,19.8747 -7.425,29.7904 -0.09,0.3762 -0.299,1.1629 -0.435,1.6962 -12.619,49.1995 -26.749,98.0105 -42.344,146.3487 -0.123,0.3675 -0.372,1.1419 -0.542,1.6652 -13.138,40.6021 -27.321,80.8654 -42.521,120.7411 -0.132,0.3551 -0.429,1.1213 -0.625,1.6339 -15.163,39.6873 -31.497,79.3431 -48.74,118.3426 -0.153,0.3516 -0.487,1.0975 -0.71,1.6 -4.111,9.2756 -8.329,18.6354 -12.6,27.971 -0.147,0.3282 -0.475,1.034 -0.692,1.5067 -6.53,14.2404 -13.203,28.4149 -19.996,42.5317 -0.162,0.3432 -0.523,1.0811 -0.761,1.5755 -9.143,18.9463 -18.533,37.7734 -28.147,56.485 -0.179,0.339 -0.552,1.0667 -0.805,1.5545 -10.867,21.103 -22.043,42.0464 -33.512,62.8284 -0.191,0.3532 -0.581,1.0505 -0.849,1.5355 -66.349,120.0252 -142.655,234.5443 -227.878,341.9938 -0.462,0.5759 -1.16,1.4572 -1.716,2.1537 -1.131,1.4214 -2.262,2.8428 -3.393,4.2642 -0.233,0.2963 -0.75,0.9374 -1.092,1.3656 -23.131,28.9187 -47.155,57.6253 -71.668,85.5954 -0.262,0.3039 -0.792,0.902 -1.157,1.3186 -8.517,9.7072 -17.113,19.3447 -25.776,28.9216 -0.257,0.2763 -0.808,0.8884 -1.177,1.2933 -21.366,23.5636 -43.189,46.7117 -65.444,69.4372 -0.262,0.2722 -0.842,0.8566 -1.225,1.2484 -7.152,7.29 -14.349,14.5357 -21.588,21.7398 -0.287,0.2802 -0.853,0.8452 -1.246,1.2344 -26.389,26.2127 -53.372,51.8266 -80.914,76.8242 -0.294,0.2721 -0.89,0.8059 -1.3,1.1781 -9.563,8.6677 -19.197,17.2578 -28.891,25.779 -0.288,0.2451 -0.904,0.7903 -1.318,1.1504 -23.901,20.9621 -48.207,41.4615 -72.899,61.4863 -0.308,0.2548 -0.933,0.7553 -1.363,1.1041 -5.833,4.7273 -11.692,9.4227 -17.567,14.099 -0.298,0.2308 -0.941,0.745 -1.372,1.0843 -3.828,3.038 -7.469,5.9082 -11.333,8.945 -0.309,0.2363 -0.946,0.7391 -1.381,1.0775 -5.909,4.6305 -11.843,9.2292 -17.793,13.8073 -0.321,0.2403 -0.953,0.7297 -1.393,1.0654 -87.242,66.959 -178.963,128.0799 -274.337,182.8369 -0.341,0.1903 -1.043,0.5956 -1.522,0.8682 -95.364,54.6627 -194.387,102.9391 -296.182,144.417 -0.342,0.1348 -1.113,0.4506 -1.619,0.6548 -31.906,12.9754 -64.087,25.2754 -96.508,36.9057 -0.368,0.1279 -1.131,0.403 -1.65,0.5873 -70.47,25.215 -142.091,47.2138 -214.562,65.9147 -0.387,0.1031 -1.163,0.2985 -1.699,0.437 -20.303,5.224 -40.673,10.1843 -61.102,14.8911 -0.373,0.088 -1.171,0.2677 -1.706,0.3909 -36.183,8.3035 -72.554,15.7885 -109.076,22.4509 -0.394,0.067 -1.181,0.2131 -1.726,0.3105 -7.375,1.3415 -14.757,2.6439 -22.143,3.9219 -0.386,0.062 -1.183,0.2015 -1.727,0.2932 -18.005,3.091 -36.045,5.9731 -54.114,8.6639 -0.382,0.059 -1.188,0.1748 -1.733,0.2557 -12.743,1.8854 -25.501,3.6667 -38.271,5.3575 -0.391,0.047 -1.191,0.1548 -1.738,0.2251 -18.111,2.3794 -36.25,4.5493 -54.409,6.5269 -0.393,0.045 -1.194,0.1281 -1.743,0.1876 -34.225,3.692 -68.528,6.6703 -102.878,8.9276 -0.395,0.028 -1.198,0.077 -1.749,0.1129 -4.793,0.3122 -9.587,0.6049 -14.382,0.8949 -0.361,0.023 -1.199,0.069 -1.742,0.101 -2.106,0.1207 -4.211,0.2413 -6.316,0.3619 -0.395,0.018 -1.199,0.065 -1.751,0.094 -10.173,0.5621 -20.35,1.058 -30.529,1.4963 -0.395,0.012 -1.199,0.049 -1.751,0.07 -4.797,0.2038 -9.595,0.3858 -14.393,0.5646 -0.379,0.017 -1.2,0.042 -1.748,0.062 -10.183,0.3612 -20.369,0.6501 -30.555,0.8914 -0.379,0.011 -1.2,0.026 -1.749,0.038 -10.185,0.2284 -20.372,0.3862 -30.56,0.4929 -0.378,-5e-4 -1.2,0.01 -1.749,0.013 -13.928,0.1496 -27.858,0.097 -41.787,0.01 -1.621,-0.01 -3.242,-0.016 -4.864,-0.024 z" /><g
       id="g3369"
       transform="translate(-11552.097,-2326.5773)"><path
         style="fill:#ffff00;fill-opacity:1;stroke-width:1"
         d="m 13878.087,2553.4172 c -167.942,12.5292 -297.967,37.3201 -545,103.911 -22,5.9304 -45.625,11.014 -52.5,11.2968 -6.875,0.283 -12.5,4.7458 -12.5,9.9176 0,5.1717 -6.75,6.813 -15,3.6471 -8.25,-3.1658 -15,-1.5707 -15,3.5447 0,5.1154 -18.067,14.1658 -40.15,20.1121 -22.083,5.9462 -55.833,20.0641 -75,31.3732 l -34.85,20.5618 -1.151,1411.5123 c -0.633,776.3317 -0.418,1418.9885 0.479,1428.1263 2.806,28.6032 -14.77,28.5153 -45.113,-0.226 -26.94,-25.5177 -64.195,-83.4446 -63.01,-97.9713 0.277,-3.3996 -3.493,-8.9342 -8.378,-12.2992 -16.344,-11.2582 -52.644,-77.9666 -46.027,-84.5839 3.594,-3.5937 1.642,-6.5341 -4.338,-6.5341 -5.98,0 -13.837,-13.5 -17.461,-30 -3.624,-16.5 -10.997,-30 -16.385,-30 -5.388,0 -7.015,-4.5 -3.615,-10 3.399,-5.5 1.414,-10 -4.41,-10 -5.825,0 -9.876,-3.375 -9.003,-7.5 0.873,-4.125 -1.817,-16.5 -5.978,-27.5 -30.007,-79.3261 -35.61,-98.2401 -35.61,-120.202 0,-13.6387 -4.5,-24.7976 -10,-24.7976 -5.5,0 -10,-14.8899 -10,-33.0887 0,-67.5636 -3.728,-68.704 -220.125,-67.3415 -109.576,0.69 -196.727,5.3366 -200.02,10.6648 -14.78,23.9155 47.832,297.6094 84.15,367.8419 9.08,17.5579 14.176,31.9235 11.324,31.9235 -2.851,0 12.576,34.5146 34.283,76.6992 21.708,42.1846 37.16,80.4346 34.338,85 -2.822,4.5654 -0.135,8.3008 5.97,8.3008 9.276,0 36.862,51.2347 41.702,77.4523 0.766,4.1512 8.59,13.0296 17.386,19.7297 8.796,6.7 12.296,12.325 7.778,12.5 -4.518,0.175 -2.268,6.7067 5,14.5151 7.268,7.8084 21.129,24.6834 30.802,37.5 9.674,12.8166 28.799,37.4525 42.5,54.7465 13.702,17.2939 24.912,35.7215 24.912,40.9502 0,11.2017 185.72,200.7524 250.307,255.4702 39.262,33.2627 60.44,48.4217 128.889,92.2573 8.692,5.5668 28.495,18.6662 44.006,29.1099 148.465,99.9636 458.92,217.6765 611.762,231.9574 32.979,3.0815 62.446,9.6201 65.48,14.5303 3.055,4.9427 25.389,5.5414 50.037,1.3414 l 44.519,-7.5861 5,-184.7371 c 2.916,-107.7365 1.02,-193.5057 -4.549,-205.7743 -7.972,-17.5647 -24.891,-23.219 -102.5,-34.2541 -51.123,-7.2692 -92.951,-17.1931 -92.951,-22.0529 0,-4.8599 -3.924,-6.4111 -8.719,-3.4472 -10.075,6.2262 -177.418,-48.5538 -196.368,-64.2812 -10.135,-8.4114 -12.909,-306.3103 -13.789,-1480.9537 -0.978,-1305.2297 0.611,-1472.137 14.144,-1485.6702 8.385,-8.3853 21.59,-12.8118 29.343,-9.8365 7.753,2.9752 15.528,1.1177 17.276,-4.1279 1.749,-5.2455 21.164,-11.4333 43.146,-13.7506 21.982,-2.3173 82.717,-11.2546 134.967,-19.8607 122.194,-20.1264 359.248,-20.3192 498.135,-0.405 153.098,21.9517 211.865,34.7069 211.865,45.9845 0,5.4302 3.554,7.6769 7.897,4.9927 10.052,-6.2129 117.726,23.8551 202.103,56.4375 86.132,33.2599 193.755,80.3902 200,87.584 2.75,3.1676 23.982,15.4941 47.182,27.3923 23.199,11.8982 61.05,34.155 84.112,49.4596 23.063,15.3046 55.797,36.2198 72.744,46.4782 30.049,18.1894 75.761,52.7087 105.962,80.0166 8.25,7.4597 25.125,18.8443 37.5,25.2992 12.375,6.455 22.5,18.3279 22.5,26.3844 0,8.0565 4.749,14.6482 10.554,14.6482 16.015,0 189.446,179.0282 189.446,195.5606 0,7.9417 6.98,14.4394 15.51,14.4394 8.531,0 22.091,15.75 30.135,35 8.043,19.25 18.235,35 22.648,35 4.413,0 18.141,18 30.506,40 12.364,22 26.253,40 30.863,40 7.357,0 29.75,50.6546 29.208,66.0724 -0.111,3.1619 6.632,10.9641 14.985,17.3383 19.992,15.2573 96.942,167.2099 90.2,178.1187 -2.879,4.6588 -0.773,8.4706 4.681,8.4706 8.087,0 21.865,26.2979 26.194,50 0.502,2.75 10.579,26.3366 22.392,52.4146 20.015,44.1845 52.734,153.4573 56.169,187.5854 0.83,8.25 4.451,17.25 8.047,20 6.578,5.0299 31.258,134.9743 50.331,265 13.657,93.1036 5.657,437.4915 -10.287,442.8059 -6.438,2.1463 -9.193,7.9699 -6.12,12.9415 5.277,8.5376 -3.127,67.6109 -26.567,186.7526 -5.681,28.875 -14.772,52.5 -20.202,52.5 -5.43,0 -7.565,3.7343 -4.745,8.2984 6.163,9.9715 -28.613,129.1934 -49.193,168.6505 -8.048,15.4281 -14.659,33.4473 -14.693,40.0427 -0.1,19.3373 -121.111,253.0084 -131.026,253.0084 -4.97,0 -9.036,6.4286 -9.036,14.2857 0,7.8572 -5.625,20.3393 -12.5,27.7381 -6.875,7.3988 -13.988,20.0952 -15.807,28.2143 -1.82,8.119 -9.695,18.3605 -17.5,22.7588 -7.806,4.3983 -14.193,14.4886 -14.193,22.4229 0,7.9342 -13.5,26.4545 -30,41.156 -16.5,14.7016 -30,30.2818 -30,34.6226 0,4.3409 -10.125,18.7928 -22.5,32.1154 -12.375,13.3225 -36,40.5242 -52.5,60.448 -25.704,31.0383 -68.687,76.243 -117.392,123.4611 -6.934,6.7225 -17.108,16.7694 -22.608,22.3263 -5.5,5.5569 -32.5,28.2441 -60,50.416 -27.5,22.1719 -59.158,49.2501 -70.352,60.1737 -11.193,10.9236 -25.121,19.8611 -30.95,19.8611 -5.829,0 -18.743,9 -28.698,20 -9.955,11 -23.455,20 -30,20 -6.545,0 -20.473,9.4865 -30.95,21.0812 -18.961,20.9832 -48.324,38.5035 -134.05,79.9843 -24.75,11.9761 -47.25,24.8389 -50,28.584 -2.75,3.7451 -12.875,9.7149 -22.5,13.2661 -15.928,5.8767 -17.5,25.878 -17.5,222.6495 v 216.1929 l 39.824,-6.7283 c 38.058,-6.4298 90.443,-30.695 245.176,-113.5667 120.269,-64.4136 182.927,-101.9162 195.412,-116.9588 6.62,-7.9773 18.377,-14.5042 26.126,-14.5042 7.75,0 16.614,-6.5787 19.7,-14.6193 3.085,-8.0407 15.319,-17.6806 27.186,-21.4221 11.867,-3.7415 49.075,-30.9128 82.685,-60.3807 33.61,-29.4678 64.506,-53.5779 68.658,-53.5779 8.38,0 291.489,-283.4102 287.39,-287.6967 -2.915,-3.0494 9.515,-19.1247 52.843,-68.3388 51.64,-58.6549 55.436,-63.4322 54.84,-69.0141 -0.605,-5.6596 52.277,-89.8319 101.223,-161.1187 15.547,-22.6426 25.524,-43.9117 22.171,-47.2646 -3.353,-3.353 1.272,-8.9238 10.277,-12.3796 9.006,-3.4557 13.574,-10.8148 10.151,-16.3534 -3.423,-5.5386 -2.117,-12.9421 2.903,-16.4521 14.671,-10.259 123.435,-238.2495 123.435,-258.7438 0,-7.3892 8.881,-30.8427 19.735,-52.1189 10.855,-21.2762 22.807,-58.2219 26.562,-82.1016 3.754,-23.8798 14.963,-62.5427 24.909,-85.9177 9.946,-23.375 16.467,-42.5 14.492,-42.5 -1.975,0 0.419,-16.875 5.321,-37.5 4.902,-20.625 11.299,-59.5007 14.216,-86.3904 2.917,-26.8898 8.406,-53.8898 12.199,-60 3.792,-6.1103 7.586,-22.3596 8.43,-36.1096 0.844,-13.75 2.467,-25 3.607,-25 6.34,0 13.904,-161.1201 14.083,-300 0.213,-165.4227 -6.143,-267.0632 -18.613,-297.6494 -3.957,-9.7072 -4.859,-26.5822 -2.004,-37.5 2.855,-10.9178 1.813,-19.8506 -2.315,-19.8506 -6.195,0 -21.79,-82.2827 -33.168,-175 -1.349,-11 -5.491,-22.3068 -9.203,-25.1263 -3.712,-2.8194 -8.212,-18.5694 -10,-35 -1.788,-16.4305 -5.579,-32.1237 -8.424,-34.8737 -5.289,-5.112 -29.029,-82.9517 -33.548,-110 -1.379,-8.25 -7.203,-24 -12.943,-35 -5.74,-11 -16.571,-41.375 -24.069,-67.5 -7.498,-26.125 -16.847,-47.5 -20.776,-47.5 -3.929,0 -10.268,-10.125 -14.087,-22.5 -3.82,-12.375 -23.064,-56.25 -42.766,-97.5 -19.702,-41.25 -34.88,-78.375 -33.73,-82.5 1.151,-4.125 -1.862,-7.5 -6.695,-7.5 -4.832,0 -14.681,-14.625 -21.886,-32.5 -7.205,-17.875 -23.501,-46.4248 -36.214,-63.4439 -12.712,-17.0192 -23.113,-33.8942 -23.113,-37.5 0,-3.6059 -7.066,-14.4311 -15.702,-24.0561 -8.637,-9.625 -39.881,-51.25 -69.431,-92.5 -29.551,-41.25 -59.61,-81.6589 -66.798,-89.7976 -7.188,-8.1387 -12.044,-17.9646 -10.79,-21.8352 1.253,-3.8707 -15.622,-21.2149 -37.5,-38.5427 -21.879,-17.3278 -39.779,-35.628 -39.779,-40.6672 0,-8.5967 -20.568,-29.5509 -167.105,-170.2423 -32.128,-30.8467 -71.798,-63.13 -88.155,-71.7406 -16.357,-8.6107 -49.81,-33.9975 -74.34,-56.4151 -24.529,-22.4176 -50.181,-40.7593 -57.003,-40.7593 -6.822,0 -16.406,-7.1532 -21.299,-15.896 -4.893,-8.7428 -10.741,-14.6349 -12.997,-13.0935 -2.255,1.5414 -28.851,-12.7825 -59.101,-31.8308 -30.25,-19.0484 -67.375,-40.0598 -82.5,-46.6922 -15.125,-6.6323 -27.5,-16.6552 -27.5,-22.2731 0,-5.6179 -3.375,-9.1426 -7.5,-7.8326 -4.125,1.3101 -36.75,-11.4734 -72.5,-28.4076 -35.75,-16.9342 -79.625,-36.5519 -97.5,-43.595 -17.875,-7.0431 -32.5,-16.7597 -32.5,-21.5924 0,-4.8327 -3.375,-7.9918 -7.5,-7.0202 -13.616,3.2072 -92.5,-22.3846 -92.5,-30.0092 0,-4.1094 -7.875,-8.0748 -17.5,-8.8119 -28.582,-2.1888 -137.239,-36.5658 -140.646,-44.4974 -1.73,-4.0285 -9.605,-4.8459 -17.5,-1.8164 -7.895,3.0294 -14.354,1.4909 -14.354,-3.419 0,-4.9098 -7.875,-9.3346 -17.5,-9.8329 -42.392,-2.1943 -172.5,-26.4023 -172.5,-32.0954 0,-3.4564 -12.375,-6.6217 -27.5,-7.0339 -15.125,-0.412 -65.75,-6.2284 -112.5,-12.9249 -78.929,-11.3058 -329.803,-19.6975 -410,-13.7144 z"
         id="path3447" /><path
         style="fill:#000000;fill-opacity:1;stroke-width:1"
         d="m 13838.087,2350.5862 c -211.903,15.6328 -360.982,46.9499 -604.229,126.9308 -326.613,107.3924 -700.564,343.0294 -951.998,599.8808 -102.056,104.2552 -253.773,288.3026 -253.773,307.8512 0,5.8063 -3.805,10.557 -8.456,10.557 -12.396,0 -122.027,179.4139 -180.26,295 -68.768,136.4936 -104.104,217.2515 -131.27,300 -12.639,38.5 -30.848,92.5523 -40.464,120.1161 -9.617,27.5639 -27.406,97.3139 -39.53,155 -12.125,57.6862 -24.119,108.2807 -26.653,112.4324 -6.175,10.1176 -20.942,151.869 -33.167,318.3831 -9.343,127.2505 -6.54,209.6568 15.442,454.0684 3.463,38.5 14.723,106.7118 25.023,151.5818 10.299,44.8701 21.236,96.6201 24.304,115 3.067,18.38 14.904,62.6682 26.304,98.4182 11.399,35.75 22.107,71.75 23.795,80 1.688,8.25 13.381,42 25.985,75 12.604,33 23.795,65.083 24.87,71.2955 6.038,34.9038 196.861,401.3058 236.895,454.8663 9.8,13.111 36.8,51.4993 60,85.3072 60.428,88.0573 124.781,161.2784 267.089,303.8938 151.319,151.6455 202.353,196.2569 300.093,262.3273 41.25,27.8842 77.25,53.6984 80,57.365 2.75,3.6666 36.5,24.0143 75,45.2173 38.5,21.203 72.25,41.5181 75,45.1448 14.718,19.4091 368.98,179.4699 397.395,179.5485 6.817,0.019 40.567,10.7222 75,23.7853 63.12,23.9463 252.8,72.0256 317.605,80.5052 19.25,2.5188 86.75,12.1272 150,21.3519 92.39,13.4747 159.237,15.6713 340,11.1725 123.75,-3.0799 245.25,-9.9305 270,-15.2236 24.75,-5.2931 67.5,-12.2921 95,-15.5535 68.261,-8.0952 258.824,-54.1919 320.277,-77.4738 27.652,-10.4763 61.895,-21.1546 76.095,-23.7295 14.2,-2.575 47.825,-14.5882 74.723,-26.6959 26.898,-12.1078 53.405,-22.8674 58.905,-23.9102 19.235,-3.6471 260.631,-125.9343 330.403,-167.377 82.949,-49.2694 225.322,-145.5418 239.597,-162.015 5.5,-6.3471 43.75,-38.8914 85,-72.3207 173.921,-140.9467 405.358,-407.2882 509.141,-585.9278 13.278,-22.8545 32.318,-55.0536 42.313,-71.5536 61.114,-100.8976 151.02,-303.0154 213.514,-480 24.624,-69.7358 82.042,-313.5457 88.828,-377.1875 3.097,-29.0469 10.718,-91.0625 16.934,-137.8125 26.712,-200.871 7.762,-546.5538 -41.502,-757.1046 -10.566,-45.1576 -21.917,-99.1311 -25.224,-119.9412 -3.308,-20.8102 -17.033,-67.1131 -30.502,-102.8954 -13.468,-35.7823 -23.546,-65.0588 -22.394,-65.0588 4.2,0 -23.679,-77.6652 -37.141,-103.4667 -7.614,-14.5933 -13.871,-32.589 -13.905,-39.9904 -0.03,-7.4014 -6.546,-25.4014 -14.472,-40 -7.926,-14.5986 -36.632,-71.5429 -63.792,-126.5429 -61.83,-125.2082 -71.468,-142.8426 -99.298,-181.6845 -12.375,-17.2716 -22.5,-33.927 -22.5,-37.0119 0,-7.5127 -50.784,-86.2187 -71.817,-111.3036 -9.223,-11 -44.378,-57.0653 -78.122,-102.3673 -83.192,-111.6879 -306.125,-334.3799 -415.586,-415.1359 -49.211,-36.3061 -102.975,-76.9793 -119.475,-90.3848 -16.5,-13.4056 -57,-39.3848 -90,-57.7317 -33,-18.3468 -62.25,-36.3701 -65,-40.0519 -5.028,-6.7316 -206.103,-108.9479 -290,-147.4215 -206.874,-94.868 -509.796,-168.1438 -775,-187.4693 -216.453,-15.7731 -196.323,-15.7898 -415,0.343 z m 540,215.1526 c 255.935,43.6618 434.542,101.3565 665,214.812 666.101,327.9238 1121.364,946.8415 1246.996,1695.2552 30.177,179.7736 32.331,514.4099 4.44,690 -92.485,582.2596 -387.907,1094.9497 -839.933,1457.6618 -117.932,94.6303 -287.048,202.6787 -426.503,272.4931 -111.574,55.8569 -218,99.8451 -241.565,99.8451 -4.639,0 -8.418,-104.625 -8.397,-232.5 l 0.04,-232.5 45.114,-18.5534 c 167.89,-69.0452 466.69,-308.9247 616.008,-494.5371 308.402,-383.3658 466.296,-891.2781 419.642,-1349.9007 -53.248,-523.436 -295.371,-978.3015 -690.839,-1297.8484 -231.142,-186.7675 -542.097,-327.1249 -855,-385.9263 -171.342,-32.1988 -454.512,-32.0572 -639.439,0.32 -71.191,12.4641 -133.066,24.904 -137.5,27.6442 -4.436,2.7401 -8.064,668.1394 -8.064,1478.665 v 1473.683 l 77.5,29.7966 c 42.625,16.3882 129.25,39.8211 192.5,52.0732 69.47,13.4568 119.949,28.439 127.5,37.8415 9.054,11.2738 12.5,70.0804 12.5,213.3019 0,180.4037 -1.583,198.5839 -18.055,207.3998 -24.494,13.1086 -206.217,-11.3238 -325.086,-43.7075 -81.155,-22.1089 -145.549,-46.3992 -289.151,-109.0711 -189.753,-82.8135 -463.356,-307.863 -609.31,-501.1807 -130.012,-172.2028 -238.225,-396.9931 -286.874,-595.9185 -34.449,-140.865 -42.811,-200.481 -30.245,-215.6227 8.691,-10.4713 56.325,-13.4588 214.594,-13.4588 230.561,0 212.9,-6.8084 233.354,89.9602 15.635,73.9658 52.2,173.3743 98.569,267.9758 41.558,84.7848 132.119,225.483 140.036,217.5653 7.123,-7.1225 8.704,-248.737 10.637,-1625.5013 l 1.735,-1235 42.398,-18.5496 c 189.168,-82.7626 492.467,-158.912 717.398,-180.1174 112.268,-10.584 417.926,2.7743 540,23.5998 z m -1520.652,537.5672 -0.652,237.5 -75.105,60 c -120.098,95.9435 -281.007,280.3379 -370.87,425 -167.859,270.2228 -261.099,552.4557 -284.665,861.6678 -46.656,612.1806 202.937,1200.49 676.001,1593.3905 252.819,209.9769 603.736,362.1321 935.943,405.8181 104.571,13.7513 354.852,18.2907 382.5,6.9374 16.573,-6.8052 17.5,-99.7355 17.5,-1753.2332 0,-1648.4917 0.965,-1745.8613 17.266,-1742.722 9.496,1.8288 60.121,67.0341 112.5,144.9008 117.11,174.0963 254.312,370.6926 297.648,426.4994 17.827,22.9577 84.98,115.9912 149.228,206.7412 133.791,188.9777 190.99,260 209.396,260 11.991,0 92.815,-101.6294 286.3,-360 43.248,-57.75 82.349,-106.3118 86.893,-107.9152 19.788,-6.9831 173.387,223.3241 235.371,352.9152 98.096,205.0914 151.908,418.6147 161.921,642.4849 13.641,304.9773 -42.089,574.4211 -172.732,835.1298 -42.799,85.4079 -142.312,241.4685 -149.935,235.1323 -1.817,-1.5109 -70.822,-69.8189 -153.344,-151.7957 l -150.04,-149.0487 47.638,-85.9513 c 95.779,-172.8122 133.574,-286.735 157.906,-475.9707 14.357,-111.6553 15.019,-147.5164 4.694,-254.3614 -11.591,-119.9522 -21.737,-160.6192 -40.072,-160.6192 -8.914,0 -94.369,96.3087 -123.346,139.0128 -8.962,13.207 -35.742,44.707 -59.512,70 -23.77,25.2929 -67.53,76.3622 -97.245,113.4872 -29.715,37.125 -59.037,67.5 -65.16,67.5 -6.123,0 -30.984,-30.375 -55.247,-67.5 -68.865,-105.3719 -204.204,-283.9271 -244.037,-321.9617 l -36.091,-34.4616 -0.376,1024.4616 c -0.448,1223.995 -2.511,1505.6965 -11.089,1514.2666 -28.308,28.281 -326.962,65.2546 -525.75,65.088 -681.173,-0.5707 -1318.288,-298.172 -1755.128,-819.8334 -272.889,-325.8762 -446.934,-711.6766 -514.312,-1140.0595 -25.239,-160.4704 -25.277,-509.1097 -0.07,-670 87.724,-559.9705 371.364,-1065.4494 796.877,-1420.1251 113.583,-94.6745 276.751,-209.8749 297.263,-209.8749 9.781,0 12.442,52.946 11.935,237.5 z"
         id="path3371" /></g></g></svg>
