<?xml version="1.0" encoding="UTF-8" standalone="no"?>
<svg
   viewBox="0 0 500 500"
   version="1.1"
   id="svg222"
   sodipodi:docname="play.svg"
   inkscape:version="1.2.1 (9c6d41e410, 2022-07-14, custom)"
   xml:space="preserve"
   width="500"
   height="500"
   xmlns:inkscape="http://www.inkscape.org/namespaces/inkscape"
   xmlns:sodipodi="http://sodipodi.sourceforge.net/DTD/sodipodi-0.dtd"
   xmlns="http://www.w3.org/2000/svg"
   xmlns:svg="http://www.w3.org/2000/svg"><sodipodi:namedview
     id="namedview5"
     pagecolor="#ffffff"
     bordercolor="#666666"
     borderopacity="1.0"
     inkscape:showpageshadow="2"
     inkscape:pageopacity="0.0"
     inkscape:pagecheckerboard="0"
     inkscape:deskcolor="#d1d1d1"
     showgrid="false"
     inkscape:zoom="0.4609375"
     inkscape:cx="-254.91525"
     inkscape:cy="-27.118644"
     inkscape:window-width="1519"
     inkscape:window-height="774"
     inkscape:window-x="1692"
     inkscape:window-y="214"
     inkscape:window-maximized="0"
     inkscape:current-layer="svg222" /><defs
     id="defs226" /><!--! Font Awesome Free 6.2.0 by @fontawesome - https://fontawesome.com License - https://fontawesome.com/license/free (Icons: CC BY 4.0, Fonts: SIL OFL 1.1, Code: MIT License) Copyright 2022 Fonticons, Inc. --><path
     id="path6935"
     style="fill:none;stroke:#999999;stroke-width:50;stroke-linecap:square;stroke-linejoin:round;stroke-miterlimit:150;stroke-dasharray:none;stroke-opacity:1;paint-order:normal"
     d="m 129.97461,51.501953 c -1.954,0.124919 -3.61761,1.529653 -4.64446,3.110746 -1.17098,2.143916 -0.6478,4.664911 -0.7539,6.993928 0.43552,127.011333 0.87104,254.022663 1.30656,381.033993 0.31264,2.2331 1.47874,4.72359 3.8149,5.39857 1.91879,0.81422 4.26206,0.63287 5.90352,-0.70731 17.40728,-11.01235 34.75364,-22.12027 52.13707,-33.17038 80.46679,-51.24589 160.93358,-102.49178 241.40037,-153.73767 1.76193,-1.47653 3.22868,-3.86837 2.49805,-6.23242 -0.34501,-1.89736 -1.59522,-3.58146 -3.31951,-4.44634 C 330.18023,183.96156 232.04324,118.17804 133.90625,52.394531 c -1.2066,-0.586129 -2.58526,-0.929585 -3.93164,-0.892578 z" /></svg>
