<?xml version="1.0" encoding="UTF-8" standalone="no"?>
<svg
   viewBox="0 0 500 500"
   version="1.1"
   id="svg222"
   sodipodi:docname="speach.svg"
   width="500"
   height="500"
   inkscape:version="1.2.1 (9c6d41e410, 2022-07-14, custom)"
   xmlns:inkscape="http://www.inkscape.org/namespaces/inkscape"
   xmlns:sodipodi="http://sodipodi.sourceforge.net/DTD/sodipodi-0.dtd"
   xmlns="http://www.w3.org/2000/svg"
   xmlns:svg="http://www.w3.org/2000/svg">
  <sodipodi:namedview
     id="namedview9"
     pagecolor="#ffffff"
     bordercolor="#666666"
     borderopacity="1.0"
     inkscape:showpageshadow="2"
     inkscape:pageopacity="0.0"
     inkscape:pagecheckerboard="0"
     inkscape:deskcolor="#d1d1d1"
     showgrid="false"
     inkscape:zoom="0.4609375"
     inkscape:cx="21.694915"
     inkscape:cy="256"
     inkscape:window-width="1436"
     inkscape:window-height="487"
     inkscape:window-x="2512"
     inkscape:window-y="272"
     inkscape:window-maximized="0"
     inkscape:current-layer="svg222" />
  <defs
     id="defs226" />
  <!--! Font Awesome Free 6.2.0 by @fontawesome - https://fontawesome.com License - https://fontawesome.com/license/free (Icons: CC BY 4.0, Fonts: SIL OFL 1.1, Code: MIT License) Copyright 2022 Fonticons, Inc. -->
  <path
     id="path1310"
     style="fill:none;stroke:#999999;stroke-width:30;stroke-linecap:round;stroke-linejoin:round"
     d="M 367.43622,349.90805 C 266.82537,387.71743 136.38305,372.92313 64.003632,315.49383 -8.3757684,258.06452 0.25496921,176.20765 84.080298,125.07982 167.90563,73.952011 300.34952,69.762858 392.16887,115.33509 c 91.81935,45.57224 113.9037,126.45762 51.37222,188.15411 l 41.47738,136.95457 z" />
  <g
     id="g1491"
     transform="translate(21.744399,1.9184459)"
     style="stroke:#999999">
    <path
       style="fill:none;fill-opacity:1;stroke:#999999;stroke-width:30;stroke-linecap:round;stroke-linejoin:round;stroke-dasharray:none;stroke-opacity:1"
       id="path1436"
       d="m 165.27512,243.10259 a 13.127781,13.270922 0 0 1 -17.16971,-3.18251 13.127781,13.270922 0 0 1 1.13604,-17.60888 13.127781,13.270922 0 0 1 17.43317,-0.90116 13.127781,13.270922 0 0 1 2.90689,17.39989 l -11.12269,-7.04914 z" />
    <path
       style="fill:none;fill-opacity:1;stroke:#999999;stroke-width:30;stroke-linecap:round;stroke-linejoin:round;stroke-dasharray:none;stroke-opacity:1"
       id="path1436-3"
       d="m 230.81477,243.10259 a 13.127781,13.270922 0 0 1 -17.16972,-3.18251 13.127781,13.270922 0 0 1 1.13604,-17.60888 13.127781,13.270922 0 0 1 17.43317,-0.90116 13.127781,13.270922 0 0 1 2.9069,17.39989 l -11.1227,-7.04914 z" />
    <path
       style="fill:none;fill-opacity:1;stroke:#999999;stroke-width:30;stroke-linecap:round;stroke-linejoin:round;stroke-dasharray:none;stroke-opacity:1"
       id="path1436-6"
       d="m 296.35439,243.10259 a 13.127781,13.270922 0 0 1 -17.16971,-3.18251 13.127781,13.270922 0 0 1 1.13604,-17.60888 13.127781,13.270922 0 0 1 17.43317,-0.90116 13.127781,13.270922 0 0 1 2.90689,17.39989 l -11.12269,-7.04914 z" />
  </g>
</svg>
