<?xml version="1.0" encoding="UTF-8" standalone="no"?>
<svg
   viewBox="0 0 500 500"
   version="1.1"
   id="svg222"
   sodipodi:docname="volume_off.svg"
   inkscape:version="1.4 (e7c3feb100, 2024-10-09)"
   xml:space="preserve"
   width="500"
   height="500"
   xmlns:inkscape="http://www.inkscape.org/namespaces/inkscape"
   xmlns:sodipodi="http://sodipodi.sourceforge.net/DTD/sodipodi-0.dtd"
   xmlns="http://www.w3.org/2000/svg"
   xmlns:svg="http://www.w3.org/2000/svg"><path
     id="path4140"
     style="fill:#999999;stroke-width:1"
     d="m 228.94222,45.339844 c 3.81769,0.300293 7.59168,1.58816 10.73828,3.78125 1.9559,1.562428 3.85565,3.194767 5.78907,4.785156 V 446.0918 c -2.16826,1.73745 -4.2097,3.64129 -6.47071,5.25781 -3.22544,1.98703 -6.97096,3.23229 -10.77148,3.32812 H 221.2723 C 179.36825,417.29147 137.46583,379.90338 95.561358,342.51758 c -18.57812,-0.0132 -37.15625,-0.0269 -55.73437,-0.0391 -4.20233,-2.08808 -8.48135,-4.0265 -12.62707,-6.2254 -8.2353,-4.466 -15.21072,-11.1478 -20.1599899,-19.09126 -3.42393,-5.35093 -5.69021,-11.31226 -8.34696,-17.05474 -0.3392,-0.7733 -0.81752,-1.51645 -0.65895,-2.39618 v -96.34766 c 2.11893002,-4.60606 4.04724,-9.30241 6.32422,-13.83398 4.32881,-8.4378 10.6465699,-15.9207 18.5708099,-21.18461 4.68255,-3.19644 9.95035,-5.35731 14.99378,-7.89748 0.90847,-0.36321 1.73075,-1.1005 2.76314,-0.926 18.2918,-0.0127 36.5836,-0.0256 54.87539,-0.0388 21.048572,-18.76712 42.072932,-37.56189 63.136632,-56.31173 21.4051,-18.616658 42.80927,-37.234381 64.21494,-55.850378 2.0096,0.01192 4.02021,-0.0247 6.02929,0.01953 z m 167.59766,4.203125 c 4.30958,0.07847 8.12951,2.469 11.48905,4.951439 6.04468,4.619325 11.38127,10.072652 16.73436,15.456422 6.70927,6.817027 13.28605,13.777749 19.33602,21.192473 21.22399,25.734297 37.40967,55.638647 47.10612,87.567607 10.42043,34.12828 13.40776,70.5145 8.57307,105.87519 -4.55065,33.63601 -16.19444,66.29016 -33.96703,95.2086 -9.26897,15.14922 -20.21979,29.24849 -32.44825,42.12139 -6.79298,7.18084 -13.61913,14.38651 -21.28428,20.65422 -3.92043,3.07977 -8.1302,6.13206 -13.0781,7.25028 -3.48623,0.81883 -7.24229,0.0372 -10.1926,-1.9659 -2.96483,-1.99108 -5.45106,-4.64874 -7.51901,-7.54397 -1.98141,-2.78245 -3.09774,-6.3343 -2.34544,-9.73626 0.90384,-4.24188 3.72327,-7.73389 6.569,-10.8731 5.60333,-6.0903 12.29279,-11.02794 18.20705,-16.79532 10.7438,-10.21121 20.32911,-21.63556 28.5466,-33.97049 0.65016,-1.00767 1.4608,-2.21105 2.14769,-3.31178 0.9492,-1.484 1.83587,-2.91953 2.76509,-4.46939 9.07089,-15.09298 16.11425,-31.39149 21.00519,-48.30477 0.43111,-1.5037 0.91483,-3.22757 1.3311,-4.82478 1.00245,-3.80747 1.94484,-7.83592 2.74073,-11.77422 0.82319,-4.07415 1.51137,-8.03423 2.10159,-12.16572 1.45524,-10.1089 2.19496,-20.53187 2.18986,-30.82864 0.009,-22.28757 -3.3952,-44.56222 -9.95898,-65.85781 -0.30132,-0.93052 -0.67793,-2.16392 -0.98278,-3.09665 -3.24209,-9.98482 -7.18282,-19.7415 -11.77699,-29.1807 -0.72734,-1.46898 -1.5521,-3.13541 -2.34534,-4.66531 -5.52216,-10.70491 -11.91504,-20.95823 -19.07068,-30.64719 -0.97806,-1.30517 -2.08503,-2.7894 -3.14249,-4.14043 -1.70572,-2.2003 -3.46928,-4.39341 -5.2115,-6.46993 -7.75546,-9.302692 -16.29588,-17.936996 -25.39516,-25.925575 -4.1734,-3.82946 -7.87549,-8.591924 -9.047,-14.249775 -0.90477,-4.188278 0.10854,-8.751019 2.81934,-12.087976 2.63591,-3.295753 6.39928,-5.582557 10.38307,-6.874357 1.21058,-0.336346 2.46132,-0.543908 3.7207,-0.517578 z M 209.57308,103.4668 c -14.91559,12.8348 -29.60699,25.93267 -44.29331,39.0115 -11.8487,10.53906 -23.56107,21.23328 -35.51483,31.65376 -5.77443,4.91287 -11.53317,9.93081 -18.05844,13.83901 -4.35127,2.6215 -9.2631,4.32077 -14.331512,4.77503 -6.30291,0.59448 -12.64201,0.20829 -18.96089,0.23176 -6.86457,-0.01 -13.77106,-0.0101 -20.57818,0.29788 -4.80648,0.27485 -9.69787,0.51666 -14.31375,1.99893 -2.64748,0.829 -4.99718,2.58601 -6.3895,5.00405 -1.27517,2.17222 -2.3065,4.47764 -3.4717,6.70956 0.016,19.72757 -0.0331,39.45531 0.0268,59.18277 0.0536,6.15006 0.11317,12.18435 0.56688,18.30008 0.42342,4.85487 0.89937,9.8534 3.002,14.31793 1.32521,2.84024 3.83913,5.03359 6.79215,6.05544 4.01159,1.47445 8.46247,1.7473 12.60628,1.98362 9.22106,0.35088 18.45125,0.1627 27.67657,0.21508 l 21.725782,0.006 c 2.44911,1.66624 5.00343,3.18486 7.37934,4.95438 6.38305,5.13663 12.49753,10.59608 18.67572,15.97488 24.004,21.02701 47.45003,42.68425 71.48857,63.67346 2.26467,1.97836 4.53585,3.94954 6.83527,5.88751 0.38542,-12.55455 0.46865,-25.2627 0.60515,-37.88483 0.35462,-40.58364 0.43885,-81.1692 0.44058,-121.75423 -0.0155,-39.47791 -0.0693,-78.95654 -0.44216,-118.43293 -0.0655,-5.66906 -0.12659,-11.33857 -0.27739,-17.00613 -0.39649,0.33528 -0.79297,0.67057 -1.18946,1.00586 z m 134.01367,1.1582 c 4.84095,0.20266 9.37346,2.39377 13.15037,5.32325 18.01797,13.09968 33.46001,29.76664 44.93714,48.87147 11.35179,18.76393 18.85019,39.72498 22.87699,61.24636 1.10286,5.75008 2.27309,11.49577 3.33409,17.24858 -0.49154,8.00178 0.56864,14.25477 0.0773,22.25656 -0.52773,8.59452 -2.68191,16.89873 -4.42851,26.52295 -2.49476,7.01619 -3.5237,15.10525 -6.19149,22.05835 -6.67816,17.1024 -15.58367,33.33111 -26.34858,48.20075 -7.25012,9.92248 -15.32599,19.33968 -24.79172,27.2213 -5.21437,4.2487 -10.88231,8.16942 -17.32315,10.28844 -4.32165,1.41632 -9.28402,1.77914 -13.43755,-0.36272 -4.77627,-2.4431 -7.69634,-7.56987 -8.4265,-12.76799 -0.44313,-3.13376 -0.17107,-6.31016 -0.24673,-9.46316 0.0547,-0.67918 -0.10663,-1.46066 0.0774,-2.07858 5.69178,-4.7022 11.46637,-9.30548 17.09538,-14.08276 15.78983,-13.67415 28.61169,-30.81186 36.96488,-49.975 2.32527,-5.3011 4.34228,-10.88452 5.95416,-16.3535 1.58095,-5.38502 2.85747,-11.01038 3.75195,-16.45703 0.96375,-5.89073 1.5617,-11.90769 1.74922,-17.93956 0.0949,-2.86817 0.0938,-6.03203 -0.005,-8.90101 -0.14691,-4.69275 -0.56354,-9.51135 -1.18604,-14.07936 -0.3443,-2.50403 -0.72446,-4.83012 -1.19724,-7.31086 -0.83448,-4.33562 -1.87247,-8.63145 -3.11331,-12.86882 -0.44547,-1.48937 -0.96632,-3.18739 -1.49011,-4.74282 -6.97173,-21.00988 -19.1577,-40.21626 -34.99887,-55.65818 -6.00384,-5.95523 -12.7274,-11.10283 -19.22777,-16.49048 -1.45837,-1.19435 -2.91645,-2.38906 -4.37504,-3.58313 0.0454,-3.45459 -0.0963,-6.9149 0.0809,-10.36575 0.35621,-5.02659 2.6797,-10.08451 6.9039,-12.99558 2.84032,-2.01318 6.37299,-2.92212 9.8336,-2.76172 z m -47.95898,50.97461 c 6.98488,0.20635 13.56706,3.17235 19.35858,6.9008 9.11487,5.95373 16.69111,13.99922 23.12057,22.72562 7.54021,10.2907 13.40777,21.74877 17.78833,33.71532 1.52458,4.0027 3.05071,8.0048 4.57432,12.00787 -0.0688,6.52887 0.93403,-22.39306 1.61806,19.05078 0.11289,6.83971 -1.9669,14.21637 -2.03799,21.05664 -2.29124,5.62687 -4.42085,11.32135 -6.84618,16.89238 -5.59607,12.44405 -13.25769,23.93096 -22.35135,34.08929 -6.34121,6.99939 -13.39323,13.48843 -21.55532,18.31205 -4.71242,2.70546 -9.93261,4.99724 -15.45921,5.00764 -3.94273,0.0482 -7.6783,-1.73117 -10.71837,-4.13088 -3.7056,-2.92013 -6.03075,-7.55748 -5.91583,-12.29899 0.0648,-5.84864 3.27264,-11.24748 7.53808,-15.07344 2.42322,-2.24871 5.29231,-3.92565 8.20059,-5.46032 8.74432,-5.04895 15.6154,-12.7894 21.06459,-21.18589 2.9019,-4.48213 5.30805,-9.17288 7.95013,-13.82231 0.43768,-0.90276 1.09971,-1.73917 1.39724,-2.68338 0.3672,-6.02836 0.88357,-12.04884 1.14068,-18.08311 0.0659,-2.28256 0.0381,-4.633 -0.0727,-6.76581 -0.61725,-12.75998 -4.35075,-25.55211 -11.78665,-36.03435 -4.2398,-6.03467 -9.69647,-11.17952 -15.89248,-15.16974 -5.47704,-3.76763 -10.91683,-7.74756 -15.29383,-12.79717 -2.71168,-3.15965 -5.04259,-7.08725 -4.85646,-11.39167 0.16171,-4.09977 2.74116,-7.63675 5.73633,-10.23828 4.12764,-2.89836 9.08879,-4.68977 13.29887,-4.62305 z"
     sodipodi:nodetypes="cccccccccccccccccccccccccccccccccccccccccccccccccccccccccccccccccccccccccccccccccccccsccccsccccccccccccccccccccccccsscccccscccccccccccccccccccc" /><sodipodi:namedview
     id="namedview5"
     pagecolor="#ffffff"
     bordercolor="#666666"
     borderopacity="1.0"
     inkscape:showpageshadow="2"
     inkscape:pageopacity="0.0"
     inkscape:pagecheckerboard="0"
     inkscape:deskcolor="#d1d1d1"
     showgrid="false"
     inkscape:zoom="0.4609375"
     inkscape:cx="-395.9322"
     inkscape:cy="296.13559"
     inkscape:window-width="1290"
     inkscape:window-height="1190"
     inkscape:window-x="26"
     inkscape:window-y="23"
     inkscape:window-maximized="0"
     inkscape:current-layer="svg222" /><defs
     id="defs226" /><!--! Font Awesome Free 6.2.0 by @fontawesome - https://fontawesome.com License - https://fontawesome.com/license/free (Icons: CC BY 4.0, Fonts: SIL OFL 1.1, Code: MIT License) Copyright 2022 Fonticons, Inc. --><path
     style="fill:none;stroke:#ff0000;stroke-width:50;stroke-linecap:round;stroke-linejoin:miter;stroke-dasharray:none;stroke-opacity:0.50196081"
     d="m 459.9322,45.317241 c 0,0 -420.881353,409.360489 -416.542369,409.360489"
     id="path1"
     sodipodi:nodetypes="cc" /></svg>
