<?xml version="1.0"?>
<!DOCTYPE svg PUBLIC "-//W3C//DTD SVG 1.1//EN"
  "http://www.w3.org/Graphics/SVG/1.1/DTD/svg11.dtd">

<svg version="1.1"
     id="svgdoc"
     xmlns="http://www.w3.org/2000/svg"
     xmlns:xlink="http://www.w3.org/1999/xlink"
     width="1024" height="768"
     viewBox="0 0 1024 768"
     style="background: #111111"
     onload="init(evt)"
>


<style type="text/css">
<![CDATA[
/* jumps */
.j	{ stroke: #bbbbbb; stroke-width: 1; }
.jc	{ stroke: #dd0000; stroke-width: 1; }
.jr	{ stroke: #800080; stroke-width: 1; }
.jx	{ stroke: #bbbbbb; stroke-width: 3; }
.jxc	{ stroke: #dd0000; stroke-width: 3; }
.jxr	{ stroke: #800080; stroke-width: 3; }
.jb	{ stroke: #0000FF; stroke-width: 3; fill: none; }

/* external system */
.eh	{ stroke: #00B000; stroke-width: 1; fill: #333333; }
.el	{ stroke: #F00000; stroke-width: 1; stroke-dasharray: 8, 4; fill: #333333; }
.e	{ stroke: #cccccc; stroke-width: 1; fill: #333333; }
.exh	{ stroke: #00B000; stroke-width: 2; fill: #333333; }
.exl	{ stroke: #F00000; stroke-width: 2; stroke-dasharray: 8, 3; fill: #333333; }
.ex	{ stroke: #cccccc; stroke-width: 2; fill: #333333; }

/* external system text */
.es	{ font-size: 9px; font-family: Arial, Helvetica, sans-serif; fill: #ffffff; }
.er	{ font-weight: bold; font-size: 7px; font-family: verdana, Arial, sans-serif; fill: #dddddd; }

/* system */
.sh	{ stroke: #00B000; stroke-width: 1; }
.sl	{ stroke: #F00000; stroke-width: 1; stroke-dasharray: 8, 3; }
.s	{ stroke: #777777; stroke-width: 1; }
.sc	{ stroke-width: 1.2; stroke-dasharray: 4, 3; }
.sx	{ stroke-width: 2.5; }

.scl	{ stroke: transparent; stroke-width: 2; fill: transparent; }

/* system text */
.ss	{ font-family: Arial, Helvetica, sans-serif; font-size: 9px; fill: #ffffff; }
.st	{ font-weight: bold; font-size: 7px; font-family: verdana, Arial, sans-serif; fill: #cccccc; }
.so	{ fill: #ff2222; }
.i	{ stroke: #0080FF; stroke-width: 1; fill: none; }

/* station */
.o	{ fill: #000000; }
.oc	{ fill: #0000FF; }
.oa	{ fill: #FFDC00; }
.og	{ fill: #00FF00; }
.om	{ fill: #FF0000; }
.o1	{ fill: #ffffff; stroke-width: 0.5; stroke: #888888; }
.o2	{ fill: #ffffff; stroke-width: 0.5; stroke: #888888; }
.oo	{ fill: none; stroke: #AAAAAA; stroke-width: 1; }

/* station services */
.v1	{ fill: #FF0000; }
.v2	{ fill: #00FF00; }
.v3	{ fill: #FFDC00; }
.v4	{ fill: #0000FF; }

/* legend */
.lb	{ stroke-width: 1; stroke: #777777; fill: #222222; }
.lbt	{ stroke-width: 1; stroke: #777777; fill: #222222; }
.lt	{ fill: #ffffff; font-family: Arial, Helvetica, sans-serif; font-weight: bold; font-size: 12px; }
.lc	{ fill: #ffffff; font-family: Arial, Helvetica, sans-serif; font-size: 11px; }
.l	{ fill: #ffffff; font-family: Arial, Helvetica, sans-serif; font-size: 10px; }

/* highlight */
.h	{ fill: none; stroke-width: 3; stroke: #FFFFFF; }
.hw	{ fill: none; stroke-width: 2; stroke: #00AA00; }
.hl	{ fill: none; stroke-width: 2; stroke: #F00000; }
.hg	{ fill: none; stroke-width: 2; stroke: #00B000; }

/* incursion */
.inc	{ fill: url(#incBg); }
.incs	{ fill: url(#incStBg); }

/* contested */
.con	{ fill: url(#conBg); }

/* sov campaign triggered */
.cam		{ fill: url(#camBg); }
.cam-active	{ fill: url(#camActiveBg); }
]]>
</style>

<g id="map">
<g id="legend">
<rect x="860.5" y="575.5" width="160" height="188" class="lb" />
<rect x="860.5" y="860.5" width="160" height="20" class="lbt" />
<text x="942.5" y="590.5" class="lt" text-anchor="middle">Outer Ring</text>
<rect x="860.5" y="595.5" width="160" height="148" class="lb" />
<rect x="860.5" y="743.5" width="160" height="20" class="lb" />
<text x="942.5" y="757.5" class="lc" text-anchor="middle"> 	&#169; by Wollari &amp; CCP</text>

<rect x="875" y="600" rx="11" ry="11" width="50" height="22"  class="s" style="fill: #111111;" /><text x="900" y="611" class="ss" text-anchor="middle">XXXXX</text><text x="900" y="618.7" class="st so" text-anchor="middle">YYYYY (Z)</text>
<rect x="920.6" y="605.5" height="11" width="11" class="o" /><polygon points="922.8,611 929.4,607.7 929.4,614.3 922.8,611"  class="o1" /><rect x="920.6" y="605.5" height="11" width="11"  class="oo" />
<text x="877" y="639.4" class="l" text-anchor="start">X</text><text x="890" y="639.4" class="l" text-anchor="start">= System</text>
<text x="877" y="654.8" class="l" text-anchor="start">Y</text><text x="890" y="654.8" class="l" text-anchor="start">= Alliance</text>
<text x="877" y="670.2" class="l" text-anchor="start">Z</text><text x="890" y="670.2" class="l" text-anchor="start">= Sov. Lvl</text>
<rect x="874" y="679.8" height="11" width="11" class="o" /><polygon points="876.2,685.3 882.8,682 882.8,688.6 876.2,685.3"  class="o1" /><rect x="874" y="679.8" height="11" width="11"  class="oo" /><text x="890" y="687.8" class="l" text-anchor="start">= Outpost</text>
<rect x="874" y="695.2" height="11" width="11" class="o" /><rect x="877.3" y="698.5" height="4.4" width="4.4" class="o2" /><rect x="874" y="695.2" height="11" width="11"  class="oo" /><text x="890" y="703.2" class="l" text-anchor="start">= Cq Stat.</text>
<rect x="874" y="710.6" height="11" width="11" class="o" /><rect x="874" y="710.6" height="11" width="11"  class="oo" /><text x="890" y="718.6" class="l" text-anchor="start">= NPC Stat.</text>
<rect x="872" y="726" rx="5.5" ry="5.5" width="15.4" height="11" class="i" /><text x="890" y="734" class="l" text-anchor="start">= Icebelt</text>

<rect x="947" y="603" height="11" width="11" class="om" /><polygon points="949.2,608.5 955.8,605.2 955.8,611.8 949.2,608.5"  class="o1" /><rect x="947" y="603" height="11" width="11"  class="oo" /><text x="963" y="611" class="l" text-anchor="start">= Refinery</text>
<rect x="947" y="618.4" height="11" width="11" class="oa" /><polygon points="949.2,623.9 955.8,620.6 955.8,627.2 949.2,623.9"  class="o1" /><rect x="947" y="618.4" height="11" width="11"  class="oo" /><text x="963" y="626.4" class="l" text-anchor="start">= Factory</text>
<rect x="947" y="633.8" height="11" width="11" class="oc" /><polygon points="949.2,639.3 955.8,636 955.8,642.6 949.2,639.3"  class="o1" /><rect x="947" y="633.8" height="11" width="11"  class="oo" /><text x="963" y="641.8" class="l" text-anchor="start">= Research</text>
<rect x="947" y="649.2" height="11" width="11" class="og" /><polygon points="949.2,654.7 955.8,651.4 955.8,658 949.2,654.7"  class="o1" /><rect x="947" y="649.2" height="11" width="11"  class="oo" /><text x="963" y="657.2" class="l" text-anchor="start">= Offices</text>
<rect x="947" y="664.6" height="11" width="11" class="o" /><polygon points="947,664.6 958,664.6 952.5,670.1 947,664.6" class="v1" /><rect x="947" y="664.6" height="11" width="11"  class="oo" /><text x="963" y="672.6" class="l" text-anchor="start">= Refining</text>
<rect x="947" y="680" height="11" width="11" class="o" /><polygon points="958,691 952.5,685.5 947,691 958,691" class="v3" /><rect x="947" y="680" height="11" width="11"  class="oo" /><text x="963" y="688" class="l" text-anchor="start">= Industry</text>
<rect x="947" y="695.4" height="11" width="11" class="o" /><polygon points="947,706.4 952.5,700.9 947,695.4 947,706.4" class="v4" /><rect x="947" y="695.4" height="11" width="11"  class="oo" /><text x="963" y="703.4" class="l" text-anchor="start">= Research</text>
<rect x="947" y="710.8" height="11" width="11" class="o" /><polygon points="958,710.8 952.5,716.3 958,721.8 958,710.8" class="v2" /><rect x="947" y="710.8" height="11" width="11"  class="oo" /><text x="963" y="718.8" class="l" text-anchor="start">= Cloning</text>
<rect x="945" y="726.2" rx="5.5" ry="5.5" width="15.4" height="11" class="sl" style="fill: #8F3496;" /><text x="963" y="734.2" class="l" text-anchor="start">= Contested</text>

</g>

<defs>
  <symbol id="def30004550">
    <a xlink:href="http://evemaps.dotlan.net/system/A2V6-6" class="sys link-5-30004550" target="_top">
    <rect id="ice30004550" x="1" y="0.5" rx="14" ry="13" width="56" height="28" class="i" />
      <rect id="rect30004550" x="4" y="3.5" rx="11" ry="11" width="50" height="22"  class="s" style="fill: #111111;" />
      <text x="28" y="14" class="ss" text-anchor="middle">A2V6-6</text>
      <text id="txt30004550" x="28" y="21.7" class="st" text-anchor="middle">ORE</text>
    </a>
  </symbol>
  <symbol id="def30004549">
    <a xlink:href="http://evemaps.dotlan.net/system/0D-CHA" class="sys link-5-30004549" target="_top">
      <rect id="rect30004549" x="4" y="3.5" rx="11" ry="11" width="50" height="22"  class="s" style="fill: #111111;" />
      <text x="28" y="14" class="ss" text-anchor="middle">0D-CHA</text>
      <text id="txt30004549" x="28" y="21.7" class="st" text-anchor="middle">ORE</text>
    </a>
  </symbol>
  <symbol id="def30004548">
    <a xlink:href="http://evemaps.dotlan.net/system/YVA-F0" class="sys link-5-30004548" target="_top">
      <rect id="rect30004548" x="4" y="3.5" rx="11" ry="11" width="50" height="22"  class="s" style="fill: #111111;" />
      <text x="28" y="14" class="ss" text-anchor="middle">YVA-F0</text>
      <text id="txt30004548" x="28" y="21.7" class="st" text-anchor="middle">ORE</text>
    </a>
  </symbol>
  <symbol id="def30004547">
    <a xlink:href="http://evemaps.dotlan.net/system/VBFC-8" class="sys link-5-30004547" target="_top">
      <rect id="rect30004547" x="4" y="3.5" rx="11" ry="11" width="50" height="22"  class="s" style="fill: #111111;" />
      <text x="28" y="14" class="ss" text-anchor="middle">VBFC-8</text>
      <text id="txt30004547" x="28" y="21.7" class="st" text-anchor="middle">ORE</text>
    </a>
  </symbol>
  <symbol id="def30004546">
    <a xlink:href="http://evemaps.dotlan.net/system/E-GCX0" class="sys link-5-30004546" target="_top">
      <rect id="rect30004546" x="4" y="3.5" rx="11" ry="11" width="50" height="22"  class="s" style="fill: #111111;" />
      <text x="28" y="14" class="ss" text-anchor="middle">E-GCX0</text>
      <text id="txt30004546" x="28" y="21.7" class="st" text-anchor="middle">ORE</text>
    </a>
  </symbol>
  <symbol id="def30004545">
    <a xlink:href="http://evemaps.dotlan.net/system/BOE7-P" class="sys link-5-30004545" target="_top">
      <rect id="rect30004545" x="4" y="3.5" rx="11" ry="11" width="50" height="22"  class="s" style="fill: #111111;" />
      <text x="28" y="14" class="ss" text-anchor="middle">BOE7-P</text>
      <text id="txt30004545" x="28" y="21.7" class="st" text-anchor="middle">ORE</text>
    </a>
  </symbol>
  <symbol id="def30004544">
    <a xlink:href="http://evemaps.dotlan.net/system/A-5M31" class="sys link-5-30004544" target="_top">
      <rect id="rect30004544" x="4" y="3.5" rx="11" ry="11" width="50" height="22"  class="s" style="fill: #111111;" />
      <text x="28" y="14" class="ss" text-anchor="middle">A-5M31</text>
      <text id="txt30004544" x="28" y="21.7" class="st" text-anchor="middle">ORE</text>
    </a>
  </symbol>
  <symbol id="def30004543">
    <a xlink:href="http://evemaps.dotlan.net/system/O-RIDF" class="sys link-5-30004543" target="_top">
    <rect id="ice30004543" x="1" y="0.5" rx="14" ry="13" width="56" height="28" class="i" />
      <rect id="rect30004543" x="4" y="3.5" rx="11" ry="11" width="50" height="22"  class="s" style="fill: #111111;" />
      <text x="28" y="14" class="ss" text-anchor="middle">O-RIDF</text>
      <text id="txt30004543" x="28" y="21.7" class="st" text-anchor="middle">ORE</text>
    </a>
  </symbol>
  <symbol id="def30004551">
    <a xlink:href="http://evemaps.dotlan.net/system/VJ0-81" class="sys link-5-30004551" target="_top">
    <rect id="ice30004551" x="1" y="0.5" rx="14" ry="13" width="56" height="28" class="i" />
      <rect id="rect30004551" x="4" y="3.5" rx="11" ry="11" width="50" height="22"  class="s" style="fill: #111111;" />
      <text x="28" y="14" class="ss" text-anchor="middle">VJ0-81</text>
      <text id="txt30004551" x="28" y="21.7" class="st" text-anchor="middle">ORE</text>
    </a>
  </symbol>
  <symbol id="def30004542">
    <a xlink:href="http://evemaps.dotlan.net/system/Z-40CG" class="sys link-5-30004542" target="_top">
      <rect id="rect30004542" x="4" y="3.5" rx="11" ry="11" width="50" height="22"  class="s" style="fill: #111111;" />
      <text x="28" y="14" class="ss" text-anchor="middle">Z-40CG</text>
      <text id="txt30004542" x="28" y="21.7" class="st" text-anchor="middle">ORE</text>
    </a>
  </symbol>
  <symbol id="def30004525">
    <a xlink:href="http://evemaps.dotlan.net/system/7-692B" class="sys link-5-30004525" target="_top">
      <rect id="rect30004525" x="4" y="3.5" rx="11" ry="11" width="50" height="22"  class="s" style="fill: #111111;" />
      <text x="28" y="14" class="ss" text-anchor="middle">7-692B</text>
      <text id="txt30004525" x="28" y="21.7" class="st" text-anchor="middle">ORE</text>
    </a>
  </symbol>
  <symbol id="def30004541">
    <a xlink:href="http://evemaps.dotlan.net/system/LBV-Q1" class="sys link-5-30004541" target="_top">
    <rect id="ice30004541" x="1" y="0.5" rx="14" ry="13" width="56" height="28" class="i" />
      <rect id="rect30004541" x="4" y="3.5" rx="11" ry="11" width="50" height="22"  class="s" style="fill: #111111;" />
      <text x="28" y="14" class="ss" text-anchor="middle">LBV-Q1</text>
      <text id="txt30004541" x="28" y="21.7" class="st" text-anchor="middle">ORE</text>
    </a>
  </symbol>
  <symbol id="def30004540">
    <a xlink:href="http://evemaps.dotlan.net/system/ZXC8-1" class="sys link-5-30004540" target="_top">
      <rect id="rect30004540" x="4" y="3.5" rx="11" ry="11" width="50" height="22"  class="s" style="fill: #111111;" />
      <text x="28" y="14" class="ss" text-anchor="middle">ZXC8-1</text>
      <text id="txt30004540" x="28" y="21.7" class="st" text-anchor="middle">ORE</text>
    </a>
  </symbol>
  <symbol id="def30004524">
    <a xlink:href="http://evemaps.dotlan.net/system/DB-6W4" class="sys link-5-30004524" target="_top">
      <rect id="rect30004524" x="4" y="3.5" rx="11" ry="11" width="50" height="22"  class="s" style="fill: #111111;" />
      <text x="28" y="14" class="ss" text-anchor="middle">DB-6W4</text>
      <text id="txt30004524" x="28" y="21.7" class="st" text-anchor="middle">ORE</text>
    </a>
  </symbol>
  <symbol id="def30004523">
    <a xlink:href="http://evemaps.dotlan.net/system/GA-2V7" class="sys link-5-30004523" target="_top">
      <rect id="rect30004523" x="4" y="3.5" rx="11" ry="11" width="50" height="22"  class="s" style="fill: #111111;" />
      <text x="28" y="14" class="ss" text-anchor="middle">GA-2V7</text>
      <text id="txt30004523" x="28" y="21.7" class="st" text-anchor="middle">ORE</text>
    </a>
  </symbol>
  <symbol id="def30004539">
    <a xlink:href="http://evemaps.dotlan.net/system/BMU-V1" class="sys link-5-30004539" target="_top">
      <rect id="rect30004539" x="4" y="3.5" rx="11" ry="11" width="50" height="22"  class="s" style="fill: #111111;" />
      <text x="28" y="14" class="ss" text-anchor="middle">BMU-V1</text>
      <text id="txt30004539" x="28" y="21.7" class="st" text-anchor="middle">ORE</text>
    </a>
  </symbol>
  <symbol id="def30004522">
    <a xlink:href="http://evemaps.dotlan.net/system/R-OCBA" class="sys link-5-30004522" target="_top">
      <rect id="rect30004522" x="4" y="3.5" rx="11" ry="11" width="50" height="22"  class="s" style="fill: #111111;" />
      <text x="28" y="14" class="ss" text-anchor="middle">R-OCBA</text>
      <text id="txt30004522" x="28" y="21.7" class="st" text-anchor="middle">ORE</text>
    </a>
  </symbol>
  <symbol id="def30004538">
    <a xlink:href="http://evemaps.dotlan.net/system/W2F-ZH" class="sys link-5-30004538" target="_top">
      <rect id="rect30004538" x="4" y="3.5" rx="11" ry="11" width="50" height="22"  class="s" style="fill: #111111;" />
      <text x="28" y="14" class="ss" text-anchor="middle">W2F-ZH</text>
      <text id="txt30004538" x="28" y="21.7" class="st" text-anchor="middle">ORE</text>
    </a>
  </symbol>
  <symbol id="def30004516">
    <a xlink:href="http://evemaps.dotlan.net/system/RTX0-S" class="sys link-5-30004516" target="_top">
      <rect id="rect30004516" x="4" y="3.5" rx="11" ry="11" width="50" height="22"  class="s" style="fill: #111111;" />
      <text x="28" y="14" class="ss" text-anchor="middle">RTX0-S</text>
      <text id="txt30004516" x="28" y="21.7" class="st" text-anchor="middle">ORE</text>
    </a>
  </symbol>
  <symbol id="def30004519">
    <a xlink:href="http://evemaps.dotlan.net/system/MT-2VJ" class="sys link-5-30004519" target="_top">
      <rect id="rect30004519" x="4" y="3.5" rx="11" ry="11" width="50" height="22"  class="s" style="fill: #111111;" />
      <text x="28" y="14" class="ss" text-anchor="middle">MT-2VJ</text>
      <text id="txt30004519" x="28" y="21.7" class="st" text-anchor="middle">ORE</text>
    </a>
  </symbol>
  <symbol id="def30004520">
    <a xlink:href="http://evemaps.dotlan.net/system/3HQC-6" class="sys link-5-30004520" target="_top">
    <rect id="ice30004520" x="1" y="0.5" rx="14" ry="13" width="56" height="28" class="i" />
      <rect id="rect30004520" x="4" y="3.5" rx="11" ry="11" width="50" height="22"  class="s" style="fill: #111111;" />
      <text x="28" y="14" class="ss" text-anchor="middle">3HQC-6</text>
      <text id="txt30004520" x="28" y="21.7" class="st" text-anchor="middle">ORE</text>
    </a>
  </symbol>
  <symbol id="def30004513">
    <a xlink:href="http://evemaps.dotlan.net/system/J1H-R4" class="sys link-5-30004513" target="_top">
      <rect id="rect30004513" x="4" y="3.5" rx="11" ry="11" width="50" height="22"  class="s" style="fill: #111111;" />
      <text x="28" y="14" class="ss" text-anchor="middle">J1H-R4</text>
      <text id="txt30004513" x="28" y="21.7" class="st" text-anchor="middle">ORE</text>
    </a>
  </symbol>
  <symbol id="def30004511">
    <a xlink:href="http://evemaps.dotlan.net/system/M-NKZM" class="sys link-5-30004511" target="_top">
      <rect id="rect30004511" x="4" y="3.5" rx="11" ry="11" width="50" height="22"  class="s" style="fill: #111111;" />
      <text x="28" y="14" class="ss" text-anchor="middle">M-NKZM</text>
      <text id="txt30004511" x="28" y="21.7" class="st" text-anchor="middle">ORE</text>
    </a>
  </symbol>
  <symbol id="def30004518">
    <a xlink:href="http://evemaps.dotlan.net/system/NM-OEA" class="sys link-5-30004518" target="_top">
      <rect id="rect30004518" x="4" y="3.5" rx="11" ry="11" width="50" height="22"  class="s" style="fill: #111111;" />
      <text x="28" y="14" class="ss" text-anchor="middle">NM-OEA</text>
      <text id="txt30004518" x="28" y="21.7" class="st" text-anchor="middle">ORE</text>
    </a>
    <rect x="49.6" y="9.5" height="11" width="11" class="o" />
    <polygon points="49.6,9.5 60.6,9.5 55.1,15 49.6,9.5" class="v1" />
    <rect x="49.6" y="9.5" height="11" width="11"  class="oo" />
  </symbol>
  <symbol id="def30004517">
    <a xlink:href="http://evemaps.dotlan.net/system/33FN-P" class="sys link-5-30004517" target="_top">
      <rect id="rect30004517" x="4" y="3.5" rx="11" ry="11" width="50" height="22"  class="s" style="fill: #111111;" />
      <text x="28" y="14" class="ss" text-anchor="middle">33FN-P</text>
      <text id="txt30004517" x="28" y="21.7" class="st" text-anchor="middle">ORE</text>
    </a>
  </symbol>
  <symbol id="def30004510">
    <a xlink:href="http://evemaps.dotlan.net/system/0-9UHT" class="sys link-5-30004510" target="_top">
      <rect id="rect30004510" x="4" y="3.5" rx="11" ry="11" width="50" height="22"  class="s" style="fill: #111111;" />
      <text x="28" y="14" class="ss" text-anchor="middle">0-9UHT</text>
      <text id="txt30004510" x="28" y="21.7" class="st" text-anchor="middle">ORE</text>
    </a>
  </symbol>
  <symbol id="def30004521">
    <a xlink:href="http://evemaps.dotlan.net/system/OX-RGN" class="sys link-5-30004521" target="_top">
      <rect id="rect30004521" x="4" y="3.5" rx="11" ry="11" width="50" height="22"  class="s" style="fill: #111111;" />
      <text x="28" y="14" class="ss" text-anchor="middle">OX-RGN</text>
      <text id="txt30004521" x="28" y="21.7" class="st" text-anchor="middle">ORE</text>
    </a>
  </symbol>
  <symbol id="def30004512">
    <a xlink:href="http://evemaps.dotlan.net/system/H-M1BY" class="sys link-5-30004512" target="_top">
      <rect id="rect30004512" x="4" y="3.5" rx="11" ry="11" width="50" height="22"  class="s" style="fill: #111111;" />
      <text x="28" y="14" class="ss" text-anchor="middle">H-M1BY</text>
      <text id="txt30004512" x="28" y="21.7" class="st" text-anchor="middle">ORE</text>
    </a>
  </symbol>
  <symbol id="def30004515">
    <a xlink:href="http://evemaps.dotlan.net/system/JKJ-VJ" class="sys link-5-30004515" target="_top">
      <rect id="rect30004515" x="4" y="3.5" rx="11" ry="11" width="50" height="22"  class="s" style="fill: #111111;" />
      <text x="28" y="14" class="ss" text-anchor="middle">JKJ-VJ</text>
      <text id="txt30004515" x="28" y="21.7" class="st" text-anchor="middle">ORE</text>
    </a>
  </symbol>
  <symbol id="def30004508">
    <a xlink:href="http://evemaps.dotlan.net/system/5WAE-M" class="sys link-5-30004508" target="_top">
      <rect id="rect30004508" x="4" y="3.5" rx="11" ry="11" width="50" height="22"  class="s" style="fill: #111111;" />
      <text x="28" y="14" class="ss" text-anchor="middle">5WAE-M</text>
      <text id="txt30004508" x="28" y="21.7" class="st" text-anchor="middle">ORE</text>
    </a>
  </symbol>
  <symbol id="def30004514">
    <a xlink:href="http://evemaps.dotlan.net/system/J9SH-A" class="sys link-5-30004514" target="_top">
      <rect id="rect30004514" x="4" y="3.5" rx="11" ry="11" width="50" height="22"  class="s" style="fill: #111111;" />
      <text x="28" y="14" class="ss" text-anchor="middle">J9SH-A</text>
      <text id="txt30004514" x="28" y="21.7" class="st" text-anchor="middle">ORE</text>
    </a>
  </symbol>
  <symbol id="def30004509">
    <a xlink:href="http://evemaps.dotlan.net/system/0-WVQS" class="sys link-5-30004509" target="_top">
      <rect id="rect30004509" x="4" y="3.5" rx="11" ry="11" width="50" height="22"  class="s" style="fill: #111111;" />
      <text x="28" y="14" class="ss" text-anchor="middle">0-WVQS</text>
      <text id="txt30004509" x="28" y="21.7" class="st" text-anchor="middle">ORE</text>
    </a>
  </symbol>
  <symbol id="def30004505">
    <a xlink:href="http://evemaps.dotlan.net/system/LGUZ-1" class="sys link-5-30004505" target="_top">
    <rect id="ice30004505" x="1" y="0.5" rx="14" ry="13" width="56" height="28" class="i" />
      <rect id="rect30004505" x="4" y="3.5" rx="11" ry="11" width="50" height="22"  class="s" style="fill: #111111;" />
      <text x="28" y="14" class="ss" text-anchor="middle">LGUZ-1</text>
      <text id="txt30004505" x="28" y="21.7" class="st" text-anchor="middle">ORE</text>
    </a>
  </symbol>
  <symbol id="def30004504">
    <a xlink:href="http://evemaps.dotlan.net/system/4C-B7X" class="sys link-5-30004504" target="_top">
      <rect id="rect30004504" x="4" y="3.5" rx="11" ry="11" width="50" height="22"  class="s" style="fill: #111111;" />
      <text x="28" y="14" class="ss" text-anchor="middle">4C-B7X</text>
      <text id="txt30004504" x="28" y="21.7" class="st" text-anchor="middle">ORE</text>
    </a>
    <rect x="49.6" y="9.5" height="11" width="11" class="o" />
    <polygon points="49.6,9.5 60.6,9.5 55.1,15 49.6,9.5" class="v1" />
    <polygon points="60.6,9.5 55.1,15 60.6,20.5 60.6,9.5" class="v2" />
    <polygon points="60.6,20.5 55.1,15 49.6,20.5 60.6,20.5" class="v3" />
    <polygon points="49.6,20.5 55.1,15 49.6,9.5 49.6,20.5" class="v4" />
    <rect x="49.6" y="9.5" height="11" width="11"  class="oo" />
  </symbol>
  <symbol id="def30004529">
    <a xlink:href="http://evemaps.dotlan.net/system/T-Z6J2" class="sys link-5-30004529" target="_top">
      <rect id="rect30004529" x="4" y="3.5" rx="11" ry="11" width="50" height="22"  class="s" style="fill: #111111;" />
      <text x="28" y="14" class="ss" text-anchor="middle">T-Z6J2</text>
      <text id="txt30004529" x="28" y="21.7" class="st" text-anchor="middle">ORE</text>
    </a>
  </symbol>
  <symbol id="def30004506">
    <a xlink:href="http://evemaps.dotlan.net/system/BF-SDP" class="sys link-5-30004506" target="_top">
      <rect id="rect30004506" x="4" y="3.5" rx="11" ry="11" width="50" height="22"  class="s" style="fill: #111111;" />
      <text x="28" y="14" class="ss" text-anchor="middle">BF-SDP</text>
      <text id="txt30004506" x="28" y="21.7" class="st" text-anchor="middle">ORE</text>
    </a>
  </symbol>
  <symbol id="def30004526">
    <a xlink:href="http://evemaps.dotlan.net/system/L3-XYO" class="sys link-5-30004526" target="_top">
      <rect id="rect30004526" x="4" y="3.5" rx="11" ry="11" width="50" height="22"  class="s" style="fill: #111111;" />
      <text x="28" y="14" class="ss" text-anchor="middle">L3-XYO</text>
      <text id="txt30004526" x="28" y="21.7" class="st" text-anchor="middle">ORE</text>
    </a>
  </symbol>
  <symbol id="def30004507">
    <a xlink:href="http://evemaps.dotlan.net/system/F5FO-U" class="sys link-5-30004507" target="_top">
      <rect id="rect30004507" x="4" y="3.5" rx="11" ry="11" width="50" height="22"  class="s" style="fill: #111111;" />
      <text x="28" y="14" class="ss" text-anchor="middle">F5FO-U</text>
      <text id="txt30004507" x="28" y="21.7" class="st" text-anchor="middle">ORE</text>
    </a>
  </symbol>
  <symbol id="def30004527">
    <a xlink:href="http://evemaps.dotlan.net/system/AN-G54" class="sys link-5-30004527" target="_top">
    <rect id="ice30004527" x="1" y="0.5" rx="14" ry="13" width="56" height="28" class="i" />
      <rect id="rect30004527" x="4" y="3.5" rx="11" ry="11" width="50" height="22"  class="s" style="fill: #111111;" />
      <text x="28" y="14" class="ss" text-anchor="middle">AN-G54</text>
      <text id="txt30004527" x="28" y="21.7" class="st" text-anchor="middle">ORE</text>
    </a>
  </symbol>
  <symbol id="def30004503">
    <a xlink:href="http://evemaps.dotlan.net/system/F-XWIN" class="sys link-5-30004503" target="_top">
      <rect id="rect30004503" x="4" y="3.5" rx="11" ry="11" width="50" height="22"  class="s" style="fill: #111111;" />
      <text x="28" y="14" class="ss" text-anchor="middle">F-XWIN</text>
      <text id="txt30004503" x="28" y="21.7" class="st" text-anchor="middle">ORE</text>
    </a>
  </symbol>
  <symbol id="def30004528">
    <a xlink:href="http://evemaps.dotlan.net/system/ZXI-K2" class="sys link-5-30004528" target="_top">
      <rect id="rect30004528" x="4" y="3.5" rx="11" ry="11" width="50" height="22"  class="s" style="fill: #111111;" />
      <text x="28" y="14" class="ss" text-anchor="middle">ZXI-K2</text>
      <text id="txt30004528" x="28" y="21.7" class="st" text-anchor="middle">ORE</text>
    </a>
  </symbol>
  <symbol id="def30004532">
    <a xlink:href="http://evemaps.dotlan.net/system/B0C-LD" class="sys link-5-30004532" target="_top">
    <rect id="ice30004532" x="1" y="0.5" rx="14" ry="13" width="56" height="28" class="i" />
      <rect id="rect30004532" x="4" y="3.5" rx="11" ry="11" width="50" height="22"  class="s" style="fill: #111111;" />
      <text x="28" y="14" class="ss" text-anchor="middle">B0C-LD</text>
      <text id="txt30004532" x="28" y="21.7" class="st" text-anchor="middle">ORE</text>
    </a>
  </symbol>
  <symbol id="def30004530">
    <a xlink:href="http://evemaps.dotlan.net/system/CT7-5V" class="sys link-5-30004530" target="_top">
    <rect id="ice30004530" x="1" y="0.5" rx="14" ry="13" width="56" height="28" class="i" />
      <rect id="rect30004530" x="4" y="3.5" rx="11" ry="11" width="50" height="22"  class="s" style="fill: #111111;" />
      <text x="28" y="14" class="ss" text-anchor="middle">CT7-5V</text>
      <text id="txt30004530" x="28" y="21.7" class="st" text-anchor="middle">ORE</text>
    </a>
  </symbol>
  <symbol id="def30004531">
    <a xlink:href="http://evemaps.dotlan.net/system/2JJ-0E" class="sys link-5-30004531" target="_top">
      <rect id="rect30004531" x="4" y="3.5" rx="11" ry="11" width="50" height="22"  class="s" style="fill: #111111;" />
      <text x="28" y="14" class="ss" text-anchor="middle">2JJ-0E</text>
      <text id="txt30004531" x="28" y="21.7" class="st" text-anchor="middle">ORE</text>
    </a>
  </symbol>
  <symbol id="def30004502">
    <a xlink:href="http://evemaps.dotlan.net/system/D5IW-F" class="sys link-5-30004502" target="_top">
    <rect id="ice30004502" x="1" y="0.5" rx="14" ry="13" width="56" height="28" class="i" />
      <rect id="rect30004502" x="4" y="3.5" rx="11" ry="11" width="50" height="22"  class="s" style="fill: #111111;" />
      <text x="28" y="14" class="ss" text-anchor="middle">D5IW-F</text>
      <text id="txt30004502" x="28" y="21.7" class="st" text-anchor="middle">ORE</text>
    </a>
    <rect x="49.6" y="9.5" height="11" width="11" class="o" />
    <polygon points="49.6,9.5 60.6,9.5 55.1,15 49.6,9.5" class="v1" />
    <polygon points="60.6,9.5 55.1,15 60.6,20.5 60.6,9.5" class="v2" />
    <polygon points="60.6,20.5 55.1,15 49.6,20.5 60.6,20.5" class="v3" />
    <polygon points="49.6,20.5 55.1,15 49.6,9.5 49.6,20.5" class="v4" />
    <rect x="49.6" y="9.5" height="11" width="11"  class="oo" />
  </symbol>
  <symbol id="def30004537">
    <a xlink:href="http://evemaps.dotlan.net/system/W-Z3HW" class="sys link-5-30004537" target="_top">
    <rect id="ice30004537" x="1" y="0.5" rx="14" ry="13" width="56" height="28" class="i" />
      <rect id="rect30004537" x="4" y="3.5" rx="11" ry="11" width="50" height="22"  class="s" style="fill: #111111;" />
      <text x="28" y="14" class="ss" text-anchor="middle">W-Z3HW</text>
      <text id="txt30004537" x="28" y="21.7" class="st" text-anchor="middle">ORE</text>
    </a>
  </symbol>
  <symbol id="def30004533">
    <a xlink:href="http://evemaps.dotlan.net/system/NP6-38" class="sys link-5-30004533" target="_top">
      <rect id="rect30004533" x="4" y="3.5" rx="11" ry="11" width="50" height="22"  class="s" style="fill: #111111;" />
      <text x="28" y="14" class="ss" text-anchor="middle">NP6-38</text>
      <text id="txt30004533" x="28" y="21.7" class="st" text-anchor="middle">ORE</text>
    </a>
  </symbol>
  <symbol id="def30004501">
    <a xlink:href="http://evemaps.dotlan.net/system/1L-BHT" class="sys link-5-30004501" target="_top">
      <rect id="rect30004501" x="4" y="3.5" rx="11" ry="11" width="50" height="22"  class="s" style="fill: #111111;" />
      <text x="28" y="14" class="ss" text-anchor="middle">1L-BHT</text>
      <text id="txt30004501" x="28" y="21.7" class="st" text-anchor="middle">ORE</text>
    </a>
  </symbol>
  <symbol id="def30004536">
    <a xlink:href="http://evemaps.dotlan.net/system/G5-EN3" class="sys link-5-30004536" target="_top">
      <rect id="rect30004536" x="4" y="3.5" rx="11" ry="11" width="50" height="22"  class="s" style="fill: #111111;" />
      <text x="28" y="14" class="ss" text-anchor="middle">G5-EN3</text>
      <text id="txt30004536" x="28" y="21.7" class="st" text-anchor="middle">ORE</text>
    </a>
  </symbol>
  <symbol id="def30004534">
    <a xlink:href="http://evemaps.dotlan.net/system/G-YT55" class="sys link-5-30004534" target="_top">
    <rect id="ice30004534" x="1" y="0.5" rx="14" ry="13" width="56" height="28" class="i" />
      <rect id="rect30004534" x="4" y="3.5" rx="11" ry="11" width="50" height="22"  class="s" style="fill: #111111;" />
      <text x="28" y="14" class="ss" text-anchor="middle">G-YT55</text>
      <text id="txt30004534" x="28" y="21.7" class="st" text-anchor="middle">ORE</text>
    </a>
  </symbol>
  <symbol id="def30004500">
    <a xlink:href="http://evemaps.dotlan.net/system/TQ-RR8" class="sys link-5-30004500" target="_top">
    <rect id="ice30004500" x="1" y="0.5" rx="14" ry="13" width="56" height="28" class="i" />
      <rect id="rect30004500" x="4" y="3.5" rx="11" ry="11" width="50" height="22"  class="s" style="fill: #111111;" />
      <text x="28" y="14" class="ss" text-anchor="middle">TQ-RR8</text>
      <text id="txt30004500" x="28" y="21.7" class="st" text-anchor="middle">ORE</text>
    </a>
  </symbol>
  <symbol id="def30004496">
    <a xlink:href="http://evemaps.dotlan.net/system/ZQP-QV" class="sys link-5-30004496" target="_top">
      <rect id="rect30004496" x="4" y="3.5" rx="11" ry="11" width="50" height="22"  class="s" style="fill: #111111;" />
      <text x="28" y="14" class="ss" text-anchor="middle">ZQP-QV</text>
      <text id="txt30004496" x="28" y="21.7" class="st" text-anchor="middle">ORE</text>
    </a>
  </symbol>
  <symbol id="def30004499">
    <a xlink:href="http://evemaps.dotlan.net/system/E9G-MT" class="sys link-5-30004499" target="_top">
      <rect id="rect30004499" x="4" y="3.5" rx="11" ry="11" width="50" height="22"  class="s" style="fill: #111111;" />
      <text x="28" y="14" class="ss" text-anchor="middle">E9G-MT</text>
      <text id="txt30004499" x="28" y="21.7" class="st" text-anchor="middle">ORE</text>
    </a>
  </symbol>
  <symbol id="def30004535">
    <a xlink:href="http://evemaps.dotlan.net/system/IZ-AOB" class="sys link-5-30004535" target="_top">
    <rect id="ice30004535" x="1" y="0.5" rx="14" ry="13" width="56" height="28" class="i" />
      <rect id="rect30004535" x="4" y="3.5" rx="11" ry="11" width="50" height="22"  class="s" style="fill: #111111;" />
      <text x="28" y="14" class="ss" text-anchor="middle">IZ-AOB</text>
      <text id="txt30004535" x="28" y="21.7" class="st" text-anchor="middle">ORE</text>
    </a>
  </symbol>
  <symbol id="def30004498">
    <a xlink:href="http://evemaps.dotlan.net/system/ZJQH-S" class="sys link-5-30004498" target="_top">
      <rect id="rect30004498" x="4" y="3.5" rx="11" ry="11" width="50" height="22"  class="s" style="fill: #111111;" />
      <text x="28" y="14" class="ss" text-anchor="middle">ZJQH-S</text>
      <text id="txt30004498" x="28" y="21.7" class="st" text-anchor="middle">ORE</text>
    </a>
  </symbol>
  <symbol id="def30004495">
    <a xlink:href="http://evemaps.dotlan.net/system/UO9-YG" class="sys link-5-30004495" target="_top">
      <rect id="rect30004495" x="4" y="3.5" rx="11" ry="11" width="50" height="22"  class="s" style="fill: #111111;" />
      <text x="28" y="14" class="ss" text-anchor="middle">UO9-YG</text>
      <text id="txt30004495" x="28" y="21.7" class="st" text-anchor="middle">ORE</text>
    </a>
  </symbol>
  <symbol id="def30004497">
    <a xlink:href="http://evemaps.dotlan.net/system/P-NUWP" class="sys link-5-30004497" target="_top">
      <rect id="rect30004497" x="4" y="3.5" rx="11" ry="11" width="50" height="22"  class="s" style="fill: #111111;" />
      <text x="28" y="14" class="ss" text-anchor="middle">P-NUWP</text>
      <text id="txt30004497" x="28" y="21.7" class="st" text-anchor="middle">ORE</text>
    </a>
  </symbol>
  <symbol id="def30004493">
    <a xlink:href="http://evemaps.dotlan.net/system/C0T-77" class="sys link-5-30004493" target="_top">
      <rect id="rect30004493" x="4" y="3.5" rx="11" ry="11" width="50" height="22"  class="s" style="fill: #111111;" />
      <text x="28" y="14" class="ss" text-anchor="middle">C0T-77</text>
      <text id="txt30004493" x="28" y="21.7" class="st" text-anchor="middle">ORE</text>
    </a>
  </symbol>
  <symbol id="def30004494">
    <a xlink:href="http://evemaps.dotlan.net/system/RL-KT0" class="sys link-5-30004494" target="_top">
      <rect id="rect30004494" x="4" y="3.5" rx="11" ry="11" width="50" height="22"  class="s" style="fill: #111111;" />
      <text x="28" y="14" class="ss" text-anchor="middle">RL-KT0</text>
      <text id="txt30004494" x="28" y="21.7" class="st" text-anchor="middle">ORE</text>
    </a>
  </symbol>
  <symbol id="def30004552">
    <a xlink:href="http://evemaps.dotlan.net/map/Fountain/XF-TQL" class="sys link-5-30004552" target="_top">
      <rect id="rect30004552" x="3.5" y="3.5" width="50" height="22" class="e" />
      <text x="28" y="14" class="es" text-anchor="middle">XF-TQL</text>
      <text x="28" y="21.7" class="er" text-anchor="middle">Fountain</text>
    </a>
  </symbol>
  <symbol id="def30003349">
    <a xlink:href="http://evemaps.dotlan.net/map/Syndicate/0T-AMZ" class="sys link-5-30003349" target="_top">
      <rect id="rect30003349" x="3.5" y="3.5" width="50" height="22" class="e" />
      <text x="28" y="14" class="es" text-anchor="middle">0T-AMZ</text>
      <text x="28" y="21.7" class="er" text-anchor="middle">Syndicate</text>
    </a>
    <rect x="49.6" y="9.5" height="11" width="11" class="o" />
    <polygon points="49.6,9.5 60.6,9.5 55.1,15 49.6,9.5" class="v1" />
    <polygon points="60.6,9.5 55.1,15 60.6,20.5 60.6,9.5" class="v2" />
    <rect x="49.6" y="9.5" height="11" width="11"  class="oo" />
  </symbol>
  <symbol id="def30003355">
    <a xlink:href="http://evemaps.dotlan.net/map/Syndicate/EF-F36" class="sys link-5-30003355" target="_top">
      <rect id="rect30003355" x="3.5" y="3.5" width="50" height="22" class="e" />
      <text x="28" y="14" class="es" text-anchor="middle">EF-F36</text>
      <text x="28" y="21.7" class="er" text-anchor="middle">Syndicate</text>
    </a>
    <rect x="49.6" y="9.5" height="11" width="11" class="o" />
    <polygon points="49.6,9.5 60.6,9.5 55.1,15 49.6,9.5" class="v1" />
    <polygon points="60.6,9.5 55.1,15 60.6,20.5 60.6,9.5" class="v2" />
    <rect x="49.6" y="9.5" height="11" width="11"  class="oo" />
  </symbol>
  <symbol id="def30003361">
    <a xlink:href="http://evemaps.dotlan.net/map/Syndicate/VSIG-K" class="sys link-5-30003361" target="_top">
      <rect id="rect30003361" x="3.5" y="3.5" width="50" height="22" class="e" />
      <text x="28" y="14" class="es" text-anchor="middle">VSIG-K</text>
      <text x="28" y="21.7" class="er" text-anchor="middle">Syndicate</text>
    </a>
    <rect x="49.6" y="9.5" height="11" width="11" class="o" />
    <polygon points="49.6,9.5 60.6,9.5 55.1,15 49.6,9.5" class="v1" />
    <polygon points="60.6,9.5 55.1,15 60.6,20.5 60.6,9.5" class="v2" />
    <rect x="49.6" y="9.5" height="11" width="11"  class="oo" />
  </symbol>
  <symbol id="def30004039">
    <a xlink:href="http://evemaps.dotlan.net/map/Cloud_Ring/5-MLDT" class="sys link-5-30004039" target="_top">
      <rect id="rect30004039" x="3.5" y="3.5" width="50" height="22" class="e" />
      <text x="28" y="14" class="es" text-anchor="middle">5-MLDT</text>
      <text x="28" y="21.7" class="er" text-anchor="middle">Cloud Ring</text>
    </a>
  </symbol>
  <symbol id="def30003322">
    <a xlink:href="http://evemaps.dotlan.net/map/Syndicate/3KNK-A" class="sys link-5-30003322" target="_top">
      <rect id="rect30003322" x="3.5" y="3.5" width="50" height="22" class="e" />
      <text x="28" y="14" class="es" text-anchor="middle">3KNK-A</text>
      <text x="28" y="21.7" class="er" text-anchor="middle">Syndicate</text>
    </a>
    <rect x="49.6" y="9.5" height="11" width="11" class="o" />
    <polygon points="49.6,9.5 60.6,9.5 55.1,15 49.6,9.5" class="v1" />
    <polygon points="60.6,9.5 55.1,15 60.6,20.5 60.6,9.5" class="v2" />
    <rect x="49.6" y="9.5" height="11" width="11"  class="oo" />
  </symbol>


  <symbol id="defCampaign" width="85" height="46">
    <rect x="0" y="0" width="85" height="46" class="cam" />
  </symbol>
  <symbol id="defCampaignActive" width="85" height="46">
    <rect x="0" y="0" width="85" height="46" class="cam-active" />
  </symbol>
  <radialGradient id="conBg">
    <stop offset="50%" stop-color="#FFA0FF"/>
    <stop offset="95%" stop-color="#FFA0FF" stop-opacity="0"/>
  </radialGradient>
  <radialGradient id="camBg">
    <stop offset="30%" stop-color="#FF8800" stop-opacity="1"/>
    <stop offset="95%" stop-color="#FF8800" stop-opacity="0"/>
  </radialGradient>
  <radialGradient id="camActiveBg">
    <stop offset="40%" stop-color="#FF0000" stop-opacity="1"/>
    <stop offset="95%" stop-color="#FF0000" stop-opacity="0"/>
  </radialGradient>
  <radialGradient id="incBg">
    <stop offset="50%" stop-color="#AFCE00"/>
    <stop offset="100%" stop-color="#AFCE00" stop-opacity="0"/>
  </radialGradient>
  <radialGradient id="incStBg">
    <stop offset="50%" stop-color="#808000"/>
    <stop offset="100%" stop-color="#808000" stop-opacity="0"/>
  </radialGradient>
</defs>

<text x="10" y="20" id="debug"  style="fill: #888888;"> </text>

<g id="glow">


</g>

<g id="campaigns"></g>

<g id="jumps">

</g>

<g id="sysuse">

</g>

<g id="highlights">

</g>

<g id="notes"></g>

<g id="standings"></g>

</g>
<g id="controls" style="display: none;">
  <a xlink:title="Zoom In"><image id="zoom_in" x="5" y="5" width="16" height="16" xlink:href="https://i.dotlan.net/images/icons/magnifier_zoom_in.png" style="cursor: pointer;"/></a>
  <a xlink:title="Zoom Out"><image id="zoom_out" x="5" y="23" width="16" height="16" xlink:href="https://i.dotlan.net/images/icons/magnifier_zoom_out.png" style="cursor: pointer;"/></a>
  <a xlink:title="Enable Mousewheel Support"><image id="wheel_on" x="5" y="42" width="16" height="16" xlink:href="https://i.dotlan.net/images/icons/mouse_add.png" style="cursor: pointer;"/> </a>
  <a xlink:title="Disable Mousewheel Support"><image id="wheel_off" x="5" y="42" width="16" height="16" xlink:href="https://i.dotlan.net/images/icons/mouse_delete.png" style="cursor: pointer; display: none;"/></a>
</g>


<script type="text/javascript" xlink:href="https://s.dotlan.net/lib/dotSvg.js?1612316784"></script>
<script type="text/javascript"><![CDATA[

function init(E) {
	SVGMap.init(E);
}

]]></script>


</svg>
